<?xml version="1.0" encoding="utf-8"?>
<!-- Generator: Adobe Illustrator 17.1.0, SVG Export Plug-In . SVG Version: 6.00 Build 0)  -->
<!DOCTYPE svg PUBLIC "-//W3C//DTD SVG 1.1//EN" "http://www.w3.org/Graphics/SVG/1.1/DTD/svg11.dtd">
<svg version="1.1" id="guidepost" xmlns="http://www.w3.org/2000/svg" xmlns:xlink="http://www.w3.org/1999/xlink" x="0px" y="0px"
	 width="218px" height="265.5px" viewBox="201 297.5 218 265.5" enable-background="new 201 297.5 218 265.5" xml:space="preserve">
<g id="_x30_6-sign-right" display="none">
	<polygon id="_x30_6-sign" display="inline" fill="#E4E5E6" points="530.8,446 509.5,472.2 289.6,472.2 289.6,419.5 509.5,419.5 	
		"/>
	<polygon id="_x30_6-shadow" display="inline" fill="#8D9293" points="323.5,418.9 323.5,472.3 339.6,472.3 	"/>
</g>
<g id="_x30_5-sign-right" display="none">
	<polygon id="_x30_5-sign" display="inline" fill="#E4E5E6" points="530.8,356 509.5,382.2 289.6,382.2 289.6,329.5 509.5,329.5 	
		"/>
	<polygon id="_x30_5-shadow" display="inline" fill="#8D9293" points="323.5,328.9 323.5,382.4 339.6,382.4 	"/>
</g>
<polygon id="_x30_4-sign-left_2_" display="none" fill="#E4E5E6" points="73.3,305.5 94.7,331.7 314.5,331.7 314.5,279 94.7,279 "/>
<polygon id="_x30_3-sign-left_2_" display="none" fill="#E4E5E6" points="73.3,236.7 94.7,262.9 314.5,262.9 314.5,210.2 
	94.7,210.2 "/>
<polygon id="_x30_2_x5F_sign-left_2_" display="none" fill="#E4E5E6" points="73.3,166.9 94.7,193.1 314.5,193.1 314.5,140.4 
	94.7,140.4 "/>
<g id="_x30_1-sign-right" display="none">
	<g display="inline">
		<polygon id="_x30_1-sign-R" fill="#E4E5E6" points="529.7,97.8 508.3,124 288.4,124 288.4,71.3 508.3,71.3 		"/>
		<polygon id="_x30_1-shadow" fill="#8D9293" points="323.5,71.9 323.5,123.8 339.6,123.8 		"/>
	</g>
</g>
<g>
	<rect id="signpost" x="304.8" y="338.2" fill="#E4E5E6" width="13.1" height="201.7"/>
	<g id="_x30_7-sign-right">
		<g>
			<polygon id="_x30_7-sign" fill="#E4E5E6" points="396,389.7 388,399.6 305.4,399.6 305.4,379.8 388,379.8 			"/>
			<polygon id="_x30_7-shadow" fill="#8D9293" points="318.2,379.6 318.2,399.6 324.2,399.6 			"/>
		</g>
	</g>
	<g id="_x30_4-sign-right">
		<g>
			<polygon id="_x30_4-sign-R" fill="#E4E5E6" points="396,441.5 388,451.4 305.4,451.4 305.4,431.6 388,431.6 			"/>
			<polygon id="_x30_4-shadow" fill="#8D9293" points="318.2,431.3 318.2,451.4 324.2,451.4 			"/>
		</g>
	</g>
	<g id="_x30_3-sign-right">
		<g>
			<polygon id="_x30_3-sign" fill="#E4E5E6" points="396,416 388,425.8 305.4,425.8 305.4,406 388,406 			"/>
			<polygon id="_x30_3-shadow" fill="#8D9293" points="318.2,405.8 318.2,425.9 324.2,425.9 			"/>
		</g>
	</g>
	<polygon id="_x30_1-sign-left" fill="#E4E5E6" points="224.2,363.6 232.2,373.4 314.8,373.4 314.8,353.6 232.2,353.6 	"/>
</g>
</svg>
