<?xml version="1.0" encoding="utf-8"?>
<!-- Generator: Adobe Illustrator 17.1.0, SVG Export Plug-In . SVG Version: 6.00 Build 0)  -->
<!DOCTYPE svg PUBLIC "-//W3C//DTD SVG 1.1//EN" "http://www.w3.org/Graphics/SVG/1.1/DTD/svg11.dtd">
<svg version="1.1" id="Layer_1" xmlns="http://www.w3.org/2000/svg" xmlns:xlink="http://www.w3.org/1999/xlink" x="0px" y="0px"
	 viewBox="0 0 189.7 189.2" style="enable-background:new 0 0 189.7 189.2;" xml:space="preserve">
<style type="text/css">
	.st0{fill:#43464C;}
	.st1{fill:#649647;}
	.st2{fill:#B6CCB1;}
	.st3{fill:none;}
	.st4{fill:#FFFFFF;}
	.st5{font-family:'Futura-Medium';}
	.st6{font-size:32.192;}
	.st7{fill:#6ABA5B;}
</style>
<path class="st0" d="M106,80l-0.1-36l0,0c0.5-0.1,1-0.3,1.3-0.6c0.9-0.7,0.4-1.6-1.2-2c-1.5-0.4-3.5-0.2-4.4,0.5
	c-0.9,0.7-0.4,1.6,1.2,2c0,0,0.1,0,0.2,0l0,0l0.1,36L106,80z"/>
<polygon class="st1" points="57.8,20.6 88,50.3 99.3,50.3 57.8,9.5 16.4,50.3 27.6,50.3 "/>
<path class="st2" d="M27.9,79.9h59.8V68.3V57.2H88L57.8,27.5L27.6,57.2h0.3v11.1V79.9z M57.8,45c7.7,0,14,6.3,14,14
	c0,7.7-6.3,14-14,14c-7.7,0-14-6.3-14-14C43.9,51.2,50.1,45,57.8,45z"/>
<path class="st0" d="M57.5,59.8l5.8,5.1c0.1,0.1,0.3,0.2,0.4,0.2c0.2,0,0.4-0.1,0.5-0.2c0.2-0.3,0.2-0.7-0.1-1l-5.7-5v-9.5
	c0-0.4-0.3-0.7-0.7-0.7c-0.4,0-0.7,0.3-0.7,0.7v9.8c0,0.2,0.1,0.4,0.2,0.5C57.4,59.8,57.4,59.8,57.5,59.8z"/>
<path class="st1" d="M177.8,171.5c0-0.7-0.2-1-0.8-1.3c-0.2-0.1-0.4-0.2-0.6-0.3c-1.1-0.6-2.1-1.2-3-1.9c-0.8-0.7-1.6-1.4-2.1-2.3
	c-0.7-1.1-0.9-2.2-0.7-3.4c0.2-1,0.6-1.8,1.2-2.6c0.7-0.9,1.4-1.7,2.3-2.3c1-0.8,2-1.5,3.2-2.1c0.5-0.2,0.7-0.5,0.6-1
	c0-0.7,0-1.3,0-2c0-4,0-8.1,0-12.1c0-0.6-0.2-0.9-0.7-1.2c-1.3-0.6-2.5-1.4-3.7-2.3c-0.8-0.6-1.5-1.3-2.1-2.2c-1-1.6-1.1-3.3-0.3-5
	c0.4-0.9,1-1.6,1.7-2.3c1.2-1.2,2.6-2.2,4.1-3c0.7-0.4,1.1-0.8,1-1.6c0-0.2,0.1-0.3,0.1-0.5c0-4.2,0-8.5,0-12.7
	c0-0.3-0.1-0.6-0.1-0.8c0-0.4-0.2-0.7-0.6-0.8c-1-0.5-1.9-1-2.8-1.6c-1.1-0.7-2.1-1.5-2.8-2.5c-1.5-2-1.6-4.1-0.2-6.2
	c0.7-1.1,1.7-2.1,2.8-2.9c0.9-0.7,1.8-1.3,2.8-1.8c0.7-0.3,1-0.8,0.9-1.4c0,0,0.1-0.1,0.1-0.1c0-1.8,0-3.6,0-5.5
	c0-1.3-0.1-1.8-1.6-1.8c-4,0-7.9,0-11.9,0c-6.2,0-12.5,0.2-18.7,0.2c-0.4,0-0.9,0-1.3,0.2c-0.1,0.4,0.1,0.8,0.1,1.1
	c0.2,0.9,0.4,1.7,0.4,2.6c0,5.1-3.3,9.9-9,11.5c-0.3,0.1-0.5,0.3-0.8,0.3h-5.2c-0.3,0-0.5-0.2-0.7-0.2c-6.5-1.7-10.3-8.2-8.8-14.3
	c0.3-1.2,0.3-1.5-1-1.5c-0.1,0-0.2,0-0.2,0c-34.9,0-69.7,0-104.6,0c-0.3,0-0.7,0.2-1,0.2c-0.6,0-0.7,0.2-0.7,0.8c0,2.2,0,4.4,0,6.6
	c0,0.6,0,0.6,0.7,0.8c0.7,0.2,1.4,0.5,1.9,1.1c0.4,0.6,1,1,1.5,1.4c1.1,0.9,2.1,2,2.7,3.2c0.9,1.8,0.7,3.5-0.4,5.2
	c-0.5,0.7-1.1,1.3-1.8,1.8c-1.2,1-2.5,1.8-4,2.5c-0.4,0.2-0.6,0.5-0.6,0.9c0,1.5,0,2.9,0,4.4c0,3.2,0,6.4,0,9.6
	c0,0.7,0.1,1.2,0.9,1.5c1,0.5,1.9,1.1,2.8,1.8c1.3,1,2.4,2.1,3.1,3.5c0.9,1.8,0.8,3.5-0.4,5.2c-0.5,0.8-1.2,1.5-2,2.1
	c-1.1,0.9-2.3,1.6-3.6,2.2c-0.6,0.3-0.9,0.7-0.8,1.3c0,0,0,0.1,0,0.1c0,4.6,0,9.1,0,13.7c0,0.2,0,0.5,0,0.7c0,0.2,0.1,0.3,0.3,0.4
	c0.3,0.1,0.6,0.3,0.9,0.4c1.3,0.5,2.6,1,3.9,1.7c1.5,0.8,2.9,1.6,4.2,2.8c0.5,0.5,0.9,1,1.3,1.6c0.7,1.2,0.6,2.4-0.2,3.6
	c-0.4,0.5-0.8,1-1.3,1.4c-1.4,1.1-2.9,1.9-4.5,2.5c-1.2,0.5-2.5,0.9-3.7,1.4c-0.8,0.3-0.8,0.3-0.8,1c0,1.7,0,3.5,0,5.2
	c0,2.2-0.3,1.9,2.1,1.9c53.4,0,106.9,0,160.3,0c0.5,0,1,0,1.5,0c0.2,0,0.3,0,0.5,0c0.2,0,0.4-0.2,0.4-0.4c0-0.2,0-0.4,0-0.6
	C177.7,175.6,177.7,173.6,177.8,171.5z"/>
<g>
	<rect x="43.7" y="103.6" class="st3" width="110.3" height="35.2"/>
	<text transform="matrix(1 0 0 1 43.7394 130.1886)" class="st4 st5 st6">TICKET</text>
	<rect x="44.6" y="135" class="st3" width="110.3" height="32.1"/>
	<text transform="matrix(1 0 0 1 44.6335 161.5719)" class="st4 st5 st6">2 RIDE</text>
</g>
<path class="st4" d="M33.1,131.5c0,11.8,0,23.6,0,35.5c0,1.2,0.1,1.1-0.7,1.1c-0.7,0-1.5,0-2.2,0c-0.1,0-0.2,0-0.4,0
	c-0.1,0-0.1-0.1-0.1-0.2c0-0.1,0-0.2,0-0.3c0-0.3,0-0.6,0-0.9c0-23.5,0-47,0-70.6c0-1.4-0.1-1.2,0.8-1.2c0.7,0,1.4,0,2.1,0
	c0.1,0,0.2,0,0.4,0c0.1,0,0.2,0.1,0.2,0.3c0,0.3,0,0.5,0,0.8c0,8.7,0,17.3,0,26C33.1,125.1,33.1,128.3,33.1,131.5z"/>
<path class="st4" d="M161,131.6c0,11.8,0,23.6,0,35.5c0,1.2,0.1,1.1-0.7,1.1c-0.7,0-1.5,0-2.2,0c-0.1,0-0.2,0-0.4,0
	c-0.1,0-0.1-0.1-0.1-0.2c0-0.1,0-0.2,0-0.3c0-0.3,0-0.6,0-0.9c0-23.5,0-47,0-70.6c0-1.4-0.1-1.2,0.8-1.2c0.7,0,1.4,0,2.1,0
	c0.1,0,0.2,0,0.4,0c0.1,0,0.2,0.1,0.2,0.3c0,0.3,0,0.5,0,0.8c0,8.7,0,17.3,0,26C161,125.2,161,128.4,161,131.6z"/>
<g>
	<path class="st7" d="M130.4,60.9c-8.8-4.9-13.2,4.9-21.9,0c0-3.4,0-10.9,0-14.3c8.8,4.9,13.1-4.9,21.9,0
		C130.4,50,130.4,57.6,130.4,60.9z"/>
</g>
</svg>
