<?xml version="1.0" encoding="utf-8"?>
<!-- Generator: Adobe Illustrator 17.1.0, SVG Export Plug-In . SVG Version: 6.00 Build 0)  -->
<!DOCTYPE svg PUBLIC "-//W3C//DTD SVG 1.1//EN" "http://www.w3.org/Graphics/SVG/1.1/DTD/svg11.dtd">
<svg version="1.1" xmlns="http://www.w3.org/2000/svg" xmlns:xlink="http://www.w3.org/1999/xlink" x="0px" y="0px" width="1024px"
	 height="284.5px" viewBox="1044 0 1024 284.5" style="enable-background:new 1044 0 1024 284.5;" xml:space="preserve">
<g id="scenery">
	<rect id="signpost_2_" x="1136.1" y="12.1" class="st0" width="16.6" height="255"/>
	<g id="_x30_4-sign_2_">
		<polygon id="_x30_4-sign-R_2_" class="st0" points="1281.1,142.7 1268.4,155.2 1136.9,155.2 1136.9,130.1 1268.4,130.1 		"/>
		<polygon id="_x30_4-shadow_2_" class="st1" points="1153,129.8 1153,155.2 1160.6,155.2 		"/>
		<rect x="1167.6" y="136" class="st2" width="73.8" height="13.5"/>
		<text id="_x30_4-Summary_2_" transform="matrix(1 0 0 1 1167.6 146.2697)" class="st4 st5 st6">Summary</text>
	</g>
	<g id="_x30_3-sign_4_">
		<polygon id="_x30_3-sign_5_" class="st0" points="1281.1,108.9 1268.4,121.3 1136.9,121.3 1136.9,96.3 1268.4,96.3 		"/>
		<polygon id="_x30_3-shadow_2_" class="st1" points="1153,96 1153,121.4 1160.6,121.4 		"/>
		<rect x="1167.6" y="102" class="st2" width="113.5" height="13.5"/>
		<text id="_x30_3-guardian_2_" transform="matrix(1 0 0 1 1167.6 112.2697)" class="st7 st6">Guardian Info</text>
	</g>
	<g id="_x30_2-sign_2_">
		<polygon id="_x30_2-signbg_2_" class="st0" points="1281.1,75.1 1268.4,87.6 1136.9,87.6 1136.9,62.5 1268.4,62.5 		"/>
		<polygon id="_x30_2-shadow_2_" class="st1" points="1153,62.3 1153,87.6 1160.6,87.6 		"/>
		<rect x="1167.6" y="69.3" class="st2" width="120.1" height="13.5"/>
		<text id="_x30_2-student_2_" transform="matrix(1 0 0 1 1167.6 79.5197)" class="st4 st5 st6">Student Info</text>
	</g>
	<g id="_x30_1-sign_2_">
		<polygon id="_x30_1-signbg_2_" class="st0" points="1281.1,41.4 1268.4,53.8 1136.9,53.8 1136.9,28.8 1268.4,28.8 		"/>
		<polygon id="_x30_1-shadow_2_" class="st1" points="1153,28.5 1153,53.9 1160.6,53.9 		"/>
		<rect x="1167.6" y="35.3" class="st2" width="77.3" height="18.5"/>
		<text id="_x30_1-Welcome_2_" transform="matrix(1 0 0 1 1167.6 45.5197)" class="st4 st5 st6">Welcome</text>
	</g>
	<rect id="signpost_7_" x="1136.1" y="12.1" class="st0" width="16.6" height="255"/>
	<g id="_x30_4-sign_7_">
		<polygon id="_x30_4-sign-R_7_" class="st0" points="1281.1,142.7 1268.4,155.2 1136.9,155.2 1136.9,130.1 1268.4,130.1 		"/>
		<polygon id="_x30_4-shadow_7_" class="st1" points="1153,129.8 1153,155.2 1160.6,155.2 		"/>
		<rect x="1167.6" y="136" class="st2" width="73.8" height="13.5"/>
		<text id="_x30_4-Summary_7_" transform="matrix(1 0 0 1 1167.6 146.2697)" class="st4 st5 st6">Summary</text>
	</g>
	<g id="_x30_3-sign_14_">
		<polygon id="_x30_3-sign_15_" class="st0" points="1281.1,108.9 1268.4,121.3 1136.9,121.3 1136.9,96.3 1268.4,96.3 		"/>
		<polygon id="_x30_3-shadow_7_" class="st1" points="1153,96 1153,121.4 1160.6,121.4 		"/>
		<rect x="1167.6" y="102" class="st2" width="113.5" height="13.5"/>
		<text id="_x30_3-guardian_7_" transform="matrix(1 0 0 1 1167.6 112.2697)" class="st7 st6">Guardian Info</text>
	</g>
	<g id="_x30_2-sign_7_">
		<polygon id="_x30_2-signbg_7_" class="st0" points="1281.1,75.1 1268.4,87.6 1136.9,87.6 1136.9,62.5 1268.4,62.5 		"/>
		<polygon id="_x30_2-shadow_7_" class="st1" points="1153,62.3 1153,87.6 1160.6,87.6 		"/>
		<rect x="1167.6" y="69.3" class="st2" width="120.1" height="13.5"/>
		<text id="_x30_2-student_7_" transform="matrix(1 0 0 1 1167.6 79.5197)" class="st4 st5 st6">Student Info</text>
	</g>
	<g id="_x30_1-sign_7_">
		<polygon id="_x30_1-signbg_7_" class="st0" points="1281.1,41.4 1268.4,53.8 1136.9,53.8 1136.9,28.8 1268.4,28.8 		"/>
		<polygon id="_x30_1-shadow_7_" class="st1" points="1153,28.5 1153,53.9 1160.6,53.9 		"/>
		<rect x="1167.6" y="35.3" class="st2" width="77.3" height="18.5"/>
		<text id="_x30_1-Welcome_7_" transform="matrix(1 0 0 1 1167.6 45.5197)" class="st4 st5 st6">Welcome</text>
	</g>
	<rect id="signpost_6_" x="1136.1" y="12.1" class="st0" width="16.6" height="255"/>
	<g id="_x30_4-sign_6_">
		<polygon id="_x30_4-sign-R_6_" class="st0" points="1281.1,142.7 1268.4,155.2 1136.9,155.2 1136.9,130.1 1268.4,130.1 		"/>
		<polygon id="_x30_4-shadow_6_" class="st1" points="1153,129.8 1153,155.2 1160.6,155.2 		"/>
		<rect x="1167.6" y="136" class="st2" width="73.8" height="13.5"/>
		<text id="_x30_4-Summary_6_" transform="matrix(1 0 0 1 1167.6 146.2697)" class="st4 st5 st6">Summary</text>
	</g>
	<g id="_x30_3-sign_12_">
		<polygon id="_x30_3-sign_13_" class="st0" points="1281.1,108.9 1268.4,121.3 1136.9,121.3 1136.9,96.3 1268.4,96.3 		"/>
		<polygon id="_x30_3-shadow_6_" class="st1" points="1153,96 1153,121.4 1160.6,121.4 		"/>
		<rect x="1167.6" y="102" class="st2" width="113.5" height="13.5"/>
		<text id="_x30_3-guardian_6_" transform="matrix(1 0 0 1 1167.6 112.2697)" class="st7 st6">Guardian Info</text>
	</g>
	<g id="_x30_2-sign_6_">
		<polygon id="_x30_2-signbg_6_" class="st0" points="1281.1,75.1 1268.4,87.6 1136.9,87.6 1136.9,62.5 1268.4,62.5 		"/>
		<polygon id="_x30_2-shadow_6_" class="st1" points="1153,62.3 1153,87.6 1160.6,87.6 		"/>
		<rect x="1167.6" y="69.3" class="st2" width="120.1" height="13.5"/>
		<text id="_x30_2-student_6_" transform="matrix(1 0 0 1 1167.6 79.5197)" class="st4 st5 st6">Student Info</text>
	</g>
	<g id="_x30_1-sign_6_">
		<polygon id="_x30_1-signbg_6_" class="st0" points="1281.1,41.4 1268.4,53.8 1136.9,53.8 1136.9,28.8 1268.4,28.8 		"/>
		<polygon id="_x30_1-shadow_6_" class="st1" points="1153,28.5 1153,53.9 1160.6,53.9 		"/>
		<rect x="1167.6" y="35.3" class="st2" width="77.3" height="18.5"/>
		<text id="_x30_1-Welcome_6_" transform="matrix(1 0 0 1 1167.6 45.5197)" class="st4 st5 st6">Welcome</text>
	</g>
	<g>
		<path class="st33" d="M1390.6,128.5c-68.6,0-124.1,66.9-124.1,149.5h248.3C1514.8,195.5,1459.2,128.5,1390.6,128.5z"/>
		<path class="st34" d="M1513.7,209c-52.1,0-94.3,30.9-94.3,69.1H1608C1608,239.9,1565.8,209,1513.7,209z"/>
		<path class="st35" d="M1090.3,187.6c-77.4,0-140.2,40.5-140.2,90.4h280.4C1230.5,228.1,1167.8,187.6,1090.3,187.6z"/>
		<path class="st34" d="M1270.7,192c-36.1,0-65.4,38.5-65.4,86.1h130.8C1336.1,230.5,1306.8,192,1270.7,192z"/>
		<path class="st34" d="M1769.4,167.6c-56.1,0-101.6,48.6-101.6,108.5h203.2C1871.1,216.2,1825.6,167.6,1769.4,167.6z"/>
		<path class="st35" d="M1614.2,191.1c-36.1,0-65.4,38.9-65.4,86.9h130.8C1679.5,230,1650.3,191.1,1614.2,191.1z"/>
	</g>
	<g>
		<g>
			<path class="st36" d="M1203.9,278.1c0-1.1,0-2.3,0-3.4c0-34.2-6.5-61.9-14.5-61.9c-2.9,0-5.7,3.7-8,10.2
				c-1.9-30.1-19.1-39.3-21.4-20.3c-2.3-6.6-5.1-10.5-8.1-10.5c-6.3,0-11.7,17.2-13.7,41.2c-1.9-4-4.1-6.3-6.4-6.3
				c-7.1,0-13,22-14.3,51.1H1203.9z"/>
			<path class="st37" d="M1202,278.1c0-0.1,0-0.2,0-0.3c0-16.2-9.5-29.4-21.2-29.4c-0.5,0-1,0-1.5,0.1
				c-1.3-14.5-10.2-25.7-21.1-25.7c-5.1,0-9.8,2.5-13.4,6.6c-1.7-12.7-7.8-22-15-22c-7,0-13,8.9-14.9,21c-2.2-2.2-4.7-3.5-7.3-3.5
				c-7.7,0-14.1,10.7-15.3,24.7c-1.9-0.8-3.9-1.2-5.9-1.2c-11.7,0-21.2,13.2-21.2,29.4c0,0.1,0,0.2,0,0.3H1202z"/>
			<path class="st38" d="M1295.4,278.1c0-0.1,0-0.2,0-0.3c0-16.2-6.4-29.4-14.2-29.4c-0.3,0-0.7,0-1,0.1
				c-0.9-14.5-6.8-25.7-14.1-25.7c-3.4,0-6.5,2.5-9,6.6c-1.2-12.7-5.2-22-10-22c-4.7,0-8.7,8.9-9.9,21c-1.5-2.2-3.1-3.5-4.9-3.5
				c-5.2,0-9.4,10.7-10.2,24.7c-1.3-0.8-2.6-1.2-4-1.2c-7.8,0-14.2,13.2-14.2,29.4c0,0.1,0,0.2,0,0.3H1295.4z"/>
			<path class="st36" d="M1347.3,278.1c0-0.6,0-1.2,0-1.8c0-18.1-6.5-32.7-14.5-32.7c-2.9,0-5.7,2-7.9,5.4
				c-1.9-15.9-6.4-27.2-11.6-27.2c-4,0-7.5,6.4-9.8,16.4c-2.3-3.5-5.1-5.5-8.1-5.5c-6.3,0-11.7,9.1-13.6,21.8
				c-1.9-2.1-4.1-3.3-6.4-3.3c-7.1,0-13.1,11.6-14.3,27H1347.3z"/>
			<path class="st38" d="M1109.5,278.1c0-0.1,0-0.1,0-0.2c0-11.1-4.7-20.1-10.6-20.1c-0.2,0-0.5,0-0.7,0.1
				c-0.6-9.9-5.1-17.6-10.5-17.6c-2.5,0-4.9,1.7-6.7,4.5c-0.9-8.7-3.9-15.1-7.5-15.1c-3.5,0-6.5,6.1-7.4,14.4
				c-1.1-1.5-2.3-2.4-3.6-2.4c-3.8,0-7,7.3-7.6,16.9c-0.9-0.5-1.9-0.8-2.9-0.8c-5.8,0-10.6,9-10.6,20.1c0,0.1,0,0.1,0,0.2H1109.5z"
				/>
			<path class="st36" d="M1148.2,278.1c0-0.4,0-0.8,0-1.2c0-12.4-4.8-22.4-10.8-22.4c-2.2,0-4.2,1.4-5.9,3.7
				c-1.4-10.9-4.7-18.6-8.7-18.6c-3,0-5.6,4.4-7.3,11.2c-1.7-2.4-3.8-3.8-6-3.8c-4.7,0-8.7,6.2-10.2,14.9c-1.4-1.5-3-2.3-4.7-2.3
				c-5.3,0-9.7,8-10.6,18.5H1148.2z"/>
			<path class="st36" d="M1240.5,278.1c0-0.6,0-1.2,0-1.8c0-18.4-3.8-33.3-8.5-33.3c-1.7,0-3.3,2-4.6,5.5
				c-1.1-16.2-3.7-27.6-6.8-27.6c-2.3,0-4.4,6.5-5.7,16.7c-1.3-3.5-3-5.6-4.7-5.6c-3.7,0-6.8,9.2-8,22.1c-1.1-2.2-2.4-3.4-3.7-3.4
				c-4.2,0-7.6,11.8-8.3,27.4H1240.5z"/>
			<path class="st37" d="M1239.4,278.1c0,0,0-0.1,0-0.1c0-8.7-5.5-15.8-12.4-15.8c-0.3,0-0.6,0-0.9,0c-0.8-7.8-6-13.8-12.3-13.8
				c-3,0-5.7,1.3-7.8,3.6c-1-6.8-4.6-11.8-8.8-11.8c-4.1,0-7.6,4.8-8.7,11.3c-1.3-1.2-2.7-1.9-4.3-1.9c-4.5,0-8.2,5.7-8.9,13.3
				c-1.1-0.4-2.3-0.6-3.5-0.6c-6.8,0-12.4,7.1-12.4,15.8c0,0,0,0.1,0,0.1H1239.4z"/>
			<path class="st38" d="M1402.7,278.1c0-0.1,0-0.1,0-0.2c0-11.9-3.7-21.5-8.3-21.5c-0.2,0-0.4,0-0.6,0.1c-0.5-10.6-4-18.8-8.2-18.8
				c-2,0-3.8,1.8-5.2,4.8c-0.7-9.3-3-16.1-5.9-16.1c-2.7,0-5.1,6.5-5.8,15.4c-0.8-1.6-1.8-2.5-2.8-2.5c-3,0-5.5,7.8-6,18.1
				c-0.7-0.6-1.5-0.9-2.3-0.9c-4.6,0-8.3,9.6-8.3,21.5c0,0.1,0,0.1,0,0.2H1402.7z"/>
			<path class="st38" d="M1442.7,278.1c0,0,0-0.1,0-0.2c0-9.5-3.7-17.2-8.3-17.2c-0.2,0-0.4,0-0.6,0c-0.5-8.5-4-15.1-8.2-15.1
				c-2,0-3.8,1.5-5.2,3.9c-0.7-7.4-3-12.9-5.9-12.9c-2.7,0-5.1,5.2-5.8,12.3c-0.8-1.3-1.8-2-2.8-2c-3,0-5.5,6.3-6,14.5
				c-0.7-0.4-1.5-0.7-2.3-0.7c-4.6,0-8.3,7.7-8.3,17.2c0,0,0,0.1,0,0.2H1442.7z"/>
			<path class="st37" d="M1506.8,278.1c0-0.1,0-0.1,0-0.2c0-9.6-6.7-17.5-14.9-17.5c-0.3,0-0.7,0-1,0c-0.9-8.6-7.2-15.3-14.8-15.3
				c-3.6,0-6.9,1.5-9.4,3.9c-1.2-7.5-5.5-13.1-10.6-13.1c-4.9,0-9.1,5.3-10.5,12.5c-1.5-1.3-3.3-2-5.1-2c-5.4,0-9.9,6.4-10.8,14.7
				c-1.3-0.4-2.7-0.7-4.2-0.7c-8.3,0-14.9,7.8-14.9,17.5c0,0.1,0,0.1,0,0.2H1506.8z"/>
			<path class="st37" d="M1368.3,278.1c0,0,0-0.1,0-0.1c0-8.8-9.1-15.9-20.3-15.9c-0.5,0-0.9,0-1.4,0c-1.2-7.8-9.8-13.9-20.1-13.9
				c-4.9,0-9.3,1.3-12.8,3.6c-1.6-6.8-26.7-7.1-28.5-0.6c-2.1-1.2-4.4-1.9-7-1.9c-7.4,0-13.5,5.8-14.6,13.3
				c-1.8-0.4-3.7-0.6-5.7-0.6c-11.2,0-20.3,7.1-20.3,15.9c0,0,0,0.1,0,0.1H1368.3z"/>
			<path class="st38" d="M1288.7,278.1c0,0,0-0.1,0-0.1c0-7.3-3.7-13.3-8.3-13.3c-0.2,0-0.4,0-0.6,0c-0.5-6.5-4-11.6-8.2-11.6
				c-2,0-3.8,1.1-5.2,3c-0.7-5.7-3-10-5.9-10c-2.7,0-5.1,4-5.8,9.5c-0.8-1-1.8-1.6-2.8-1.6c-3,0-5.5,4.8-6,11.1
				c-0.7-0.3-1.5-0.5-2.3-0.5c-4.6,0-8.3,5.9-8.3,13.3c0,0,0,0.1,0,0.1H1288.7z"/>
			<path class="st36" d="M1625.9,278.1c0-0.8,0-1.6,0-2.4c0-24.3-5-44-11.2-44c-2.3,0-4.4,2.7-6.1,7.2
				c-1.4-21.4-14.8-27.9-16.5-14.4c-1.8-4.7-3.9-7.4-6.2-7.4c-4.9,0-9,12.2-10.5,29.3c-1.5-2.9-3.1-4.5-4.9-4.5
				c-5.5,0-10.1,15.6-11,36.2H1625.9z"/>
			<path class="st37" d="M1624.4,278.1c0-0.1,0-0.1,0-0.2c0-11.5-8.3-20.9-18.5-20.9c-0.4,0-0.9,0-1.3,0.1
				c-1.1-10.3-8.9-18.3-18.3-18.3c-4.4,0-8.5,1.8-11.7,4.7c-1.5-9-6.8-15.6-13.1-15.6c-6.1,0-11.3,6.3-12.9,14.9
				c-1.9-1.6-4-2.5-6.3-2.5c-6.7,0-12.3,7.6-13.3,17.5c-1.6-0.5-3.4-0.8-5.1-0.8c-10.2,0-18.5,9.3-18.5,20.9c0,0.1,0,0.1,0,0.2
				H1624.4z"/>
			<path class="st36" d="M1776.1,278.1c0-0.8,0-1.6,0-2.4c0-24.3,5-44,11.2-44c2.3,0,4.4,2.7,6.1,7.2c1.4-21.4,14.8-27.9,16.5-14.4
				c1.8-4.7,3.9-7.4,6.2-7.4c4.9,0,9,12.2,10.5,29.3c1.5-2.9,3.1-4.5,4.9-4.5c5.5,0,10.1,15.6,11,36.2H1776.1z"/>
			<path class="st37" d="M1777.6,278.1c0-0.1,0-0.1,0-0.2c0-11.5,7.3-20.9,16.4-20.9c0.4,0,0.8,0,1.1,0.1c1-10.3,7.9-18.3,16.3-18.3
				c3.9,0,7.5,1.8,10.4,4.7c1.3-9,6-15.6,11.6-15.6c5.4,0,10,6.3,11.5,14.9c1.7-1.6,3.6-2.5,5.6-2.5c6,0,10.9,7.6,11.8,17.5
				c1.4-0.5,3-0.8,4.6-0.8c9,0,16.4,9.3,16.4,20.9c0,0.1,0,0.1,0,0.2H1777.6z"/>
			<path class="st38" d="M1696.5,278.1c0-0.1,0-0.1,0-0.2c0-11.5-4.9-20.9-11-20.9c-0.3,0-0.5,0-0.8,0.1
				c-0.7-10.3-5.3-18.3-10.9-18.3c-2.6,0-5,1.8-6.9,4.7c-0.9-9-4-15.6-7.8-15.6c-3.6,0-6.7,6.3-7.7,14.9c-1.1-1.6-2.4-2.5-3.8-2.5
				c-4,0-7.3,7.6-7.9,17.5c-1-0.5-2-0.8-3.1-0.8c-6.1,0-11,9.3-11,20.9c0,0.1,0,0.1,0,0.2H1696.5z"/>
			<path class="st36" d="M1736.6,278.1c0-0.4,0-0.8,0-1.3c0-12.8-5-23.2-11.2-23.2c-2.3,0-4.4,1.4-6.1,3.8
				c-1.4-11.3-4.9-19.3-9-19.3c-3.1,0-5.8,4.5-7.6,11.6c-1.8-2.5-3.9-3.9-6.2-3.9c-4.9,0-9,6.4-10.5,15.5c-1.5-1.5-3.2-2.4-4.9-2.4
				c-5.5,0-10.1,8.3-11,19.1H1736.6z"/>
			<path class="st36" d="M1782.6,278.1c0-0.4,0-0.8,0-1.3c0-12.8-5-23.2-11.2-23.2c-2.3,0-4.4,1.4-6.1,3.8
				c-1.4-11.3-4.9-19.3-9-19.3c-3.1,0-5.8,4.5-7.6,11.6c-1.8-2.5-3.9-3.9-6.2-3.9c-4.9,0-9,6.4-10.5,15.5c-1.5-1.5-3.2-2.4-4.9-2.4
				c-5.5,0-10.1,8.3-11,19.1H1782.6z"/>
			<g>
				<rect x="1782.7" y="266.6" class="st16" width="2.6" height="11.5"/>
				<path class="st39" d="M1792.9,249.8c2.9,10.9-3.9,16.9-8.8,16.9c-4.9,0-12-7.6-8.8-16.9c3-9,3.9-16.9,8.8-16.9
					C1788.9,232.9,1790.5,240.7,1792.9,249.8z"/>
			</g>
			<g>
				<rect x="1049" y="248.4" class="st16" width="5.3" height="29.6"/>
				<path class="st40" d="M1074.6,234.6c0.2-0.9,0.4-1.8,0.4-2.7c0-5.2-4.1-9.5-9.1-9.5c-1.9,0-3.6,0.6-5.1,1.6c0-0.2,0-0.4,0-0.6
					c0-5.2-4.1-9.5-9.1-9.5c-5.1,0-9.1,4.2-9.1,9.5c0,0.2,0,0.4,0,0.6c-1.4-1-3.2-1.6-5.1-1.6c-5,0-9.1,4.2-9.1,9.5
					c0,0.9,0.1,1.9,0.4,2.7c-2.8,1.6-4.7,4.7-4.7,8.3c0,5.2,4.1,9.5,9.1,9.5c0.3,0,0.7,0,1-0.1c1.5,3.1,4.6,5.2,8.2,5.2
					c3.6,0,6.7-2.2,8.2-5.3c0.4,0.1,0.9,0.1,1.3,0.1c0.3,0,0.7,0,1-0.1c1.5,3.1,4.6,5.2,8.2,5.2c3.6,0,6.7-2.1,8.2-5.2
					c0.3,0,0.6,0.1,1,0.1c5,0,9.1-4.2,9.1-9.5C1079.3,239.3,1077.4,236.2,1074.6,234.6z"/>
			</g>
			<g>
				<rect x="1530.3" y="252.3" class="st16" width="4.6" height="25.8"/>
				<path class="st40" d="M1552.5,240.2c0.2-0.8,0.3-1.5,0.3-2.4c0-4.6-3.6-8.3-8-8.3c-1.6,0-3.1,0.5-4.4,1.4c0-0.2,0-0.3,0-0.5
					c0-4.6-3.6-8.3-8-8.3c-4.4,0-8,3.7-8,8.3c0,0.2,0,0.3,0,0.5c-1.3-0.9-2.8-1.4-4.4-1.4c-4.4,0-8,3.7-8,8.3c0,0.8,0.1,1.6,0.3,2.4
					c-2.4,1.4-4.1,4.1-4.1,7.2c0,4.6,3.6,8.3,8,8.3c0.3,0,0.6,0,0.8,0c1.3,2.7,4,4.6,7.1,4.6c3.1,0,5.8-1.9,7.1-4.6
					c0.4,0.1,0.8,0.1,1.2,0.1c0.3,0,0.6,0,0.9,0c1.3,2.7,4,4.6,7.1,4.6c3.1,0,5.8-1.9,7.1-4.6c0.3,0,0.6,0,0.9,0c4.4,0,8-3.7,8-8.3
					C1556.6,244.3,1555,241.6,1552.5,240.2z"/>
			</g>
			<g>
				<rect x="1472.5" y="245.9" class="st16" width="5.8" height="32.2"/>
				<path class="st40" d="M1500.3,230.8c0.3-0.9,0.4-1.9,0.4-2.9c0-5.7-4.4-10.3-9.9-10.3c-2,0-3.9,0.6-5.5,1.7c0-0.2,0-0.4,0-0.6
					c0-5.7-4.4-10.3-9.9-10.3c-5.5,0-9.9,4.6-9.9,10.3c0,0.2,0,0.4,0,0.6c-1.6-1.1-3.5-1.7-5.5-1.7c-5.5,0-9.9,4.6-9.9,10.3
					c0,1,0.2,2,0.4,2.9c-3,1.8-5.1,5.1-5.1,9c0,5.7,4.4,10.3,9.9,10.3c0.4,0,0.7,0,1.1-0.1c1.6,3.4,5,5.7,8.9,5.7
					c3.9,0,7.3-2.3,8.9-5.7c0.5,0.1,0.9,0.1,1.4,0.1c0.4,0,0.7,0,1.1-0.1c1.6,3.4,5,5.7,8.9,5.7c3.9,0,7.2-2.3,8.9-5.7
					c0.3,0,0.7,0.1,1.1,0.1c5.5,0,9.9-4.6,9.9-10.3C1505.4,236,1503.3,232.6,1500.3,230.8z"/>
			</g>
			<g>
				<rect x="1133.8" y="244.4" class="st16" width="6" height="33.7"/>
				<path class="st40" d="M1162.8,228.7c0.3-1,0.4-2,0.4-3.1c0-6-4.6-10.8-10.4-10.8c-2.1,0-4.1,0.7-5.7,1.8c0-0.2,0-0.4,0-0.6
					c0-5.9-4.6-10.8-10.4-10.8c-5.7,0-10.4,4.8-10.4,10.8c0,0.2,0,0.4,0,0.6c-1.6-1.1-3.6-1.8-5.8-1.8c-5.7,0-10.4,4.8-10.4,10.8
					c0,1.1,0.2,2.1,0.4,3.1c-3.2,1.8-5.3,5.4-5.3,9.4c0,6,4.6,10.8,10.4,10.8c0.4,0,0.7,0,1.1-0.1c1.7,3.5,5.2,5.9,9.3,5.9
					c4.1,0,7.6-2.4,9.3-6c0.5,0.1,1,0.1,1.5,0.1c0.4,0,0.7,0,1.1-0.1c1.7,3.5,5.2,5.9,9.3,5.9c4.1,0,7.6-2.4,9.3-5.9
					c0.4,0,0.7,0.1,1.1,0.1c5.7,0,10.4-4.8,10.4-10.8C1168.1,234,1166,230.5,1162.8,228.7z"/>
			</g>
			<g>
				<rect x="1338.6" y="263.4" class="st16" width="3.3" height="14.6"/>
				<path class="st39" d="M1348.8,250.6c2.8,10.6-3.8,16.3-8.5,16.3c-4.7,0-11.5-7.4-8.5-16.3c2.9-8.6,3.8-16.3,8.5-16.3
					C1345,234.3,1346.5,241.8,1348.8,250.6z"/>
			</g>
			<g>
				<rect x="1377.5" y="263.4" class="st16" width="3.3" height="14.6"/>
				<path class="st39" d="M1387.7,250.6c2.8,10.6-3.8,16.3-8.5,16.3c-4.7,0-11.5-7.4-8.5-16.3c2.9-8.6,3.8-16.3,8.5-16.3
					C1383.9,234.3,1385.3,241.8,1387.7,250.6z"/>
			</g>
			<g>
				<rect x="1748" y="266.6" class="st16" width="2.6" height="11.5"/>
				<path class="st39" d="M1758.1,249.8c2.9,10.9-3.9,16.9-8.8,16.9c-4.9,0-12-7.6-8.8-16.9c3-9,3.9-16.9,8.8-16.9
					C1754.2,232.9,1755.7,240.7,1758.1,249.8z"/>
			</g>
		</g>
	</g>
	<g>
		<rect x="936.7" y="277.8" class="st19" width="947.2" height="2.9"/>
		<rect x="936.7" y="279.7" class="st20" width="947.2" height="5.1"/>
	</g>
	<g>
		<path class="st41" d="M2102.8,130.7c-67.6,0-122.4,66-122.4,147.5h244.9C2225.2,196.7,2170.4,130.7,2102.8,130.7z"/>
		<path class="st43" d="M1806.6,188.9c-76.4,0-138.3,39.9-138.3,89.2h276.6C1944.9,228.9,1883,188.9,1806.6,188.9z"/>
		<path class="st42" d="M1984.5,193.2c-35.6,0-64.5,38-64.5,84.9h129C2048.9,231.3,2020.1,193.2,1984.5,193.2z"/>
	</g>
	<g>
		<g>
			<path class="st44" d="M1918.6,278.2c0-1.1,0-2.2,0-3.4c0-33.7-6.4-61.1-14.3-61.1c-2.9,0-5.6,3.7-7.8,10
				c-1.8-29.7-18.9-38.7-21.1-20c-2.3-6.5-5-10.3-7.9-10.3c-6.2,0-11.5,17-13.5,40.7c-1.9-4-4-6.2-6.3-6.2c-7,0-12.9,21.7-14.1,50.3
				H1918.6z"/>
			<path class="st45" d="M1916.7,278.2c0-0.1,0-0.2,0-0.3c0-16-9.4-29-21-29c-0.5,0-1,0-1.5,0.1c-1.3-14.3-10.1-25.4-20.8-25.4
				c-5,0-9.6,2.4-13.2,6.5c-1.7-12.5-7.7-21.7-14.8-21.7c-6.9,0-12.8,8.7-14.7,20.7c-2.1-2.2-4.6-3.4-7.2-3.4
				c-7.6,0-13.9,10.5-15.1,24.3c-1.9-0.8-3.8-1.2-5.8-1.2c-11.6,0-20.9,13-20.9,29c0,0.1,0,0.2,0,0.3H1916.7z"/>
			<path class="st46" d="M2008.9,278.2c0-0.1,0-0.2,0-0.3c0-16-6.3-29-14-29c-0.3,0-0.6,0-1,0.1c-0.9-14.3-6.8-25.4-13.9-25.4
				c-3.4,0-6.4,2.4-8.9,6.5c-1.1-12.5-5.1-21.7-9.9-21.7c-4.6,0-8.6,8.7-9.8,20.7c-1.4-2.2-3.1-3.4-4.8-3.4
				c-5.1,0-9.3,10.5-10.1,24.3c-1.2-0.7-2.5-1.1-3.9-1.1c-7.7,0-14,13-14,29c0,0.1,0,0.2,0,0.3H2008.9z"/>
			<path class="st44" d="M2060.1,278.2c0-0.6,0-1.2,0-1.8c0-17.8-6.4-32.3-14.3-32.3c-2.9,0-5.6,2-7.8,5.3
				c-1.8-15.7-6.3-26.8-11.5-26.8c-3.9,0-7.4,6.3-9.7,16.2c-2.3-3.4-5-5.5-7.9-5.5c-6.2,0-11.5,9-13.5,21.5c-1.9-2.1-4-3.3-6.3-3.3
				c-7,0-12.9,11.5-14.1,26.6H2060.1z"/>
			<path class="st44" d="M1758.3,278.2c0-0.8,0-1.5,0-2.3c0-23.1-4.8-41.8-10.6-41.8c-2.2,0-4.2,2.5-5.8,6.9
				c-1.4-20.4-14-26.5-15.7-13.7c-1.7-4.5-3.7-7.1-5.9-7.1c-4.6,0-8.6,11.6-10,27.9c-1.4-2.7-3-4.3-4.7-4.3
				c-5.2,0-9.6,14.9-10.5,34.5H1758.3z"/>
			<path class="st45" d="M1756.9,278.2c0-0.1,0-0.1,0-0.2c0-11-7-19.9-15.6-19.9c-0.4,0-0.7,0-1.1,0.1c-1-9.8-7.5-17.4-15.5-17.4
				c-3.7,0-7.2,1.7-9.9,4.5c-1.3-8.6-5.7-14.9-11-14.9c-5.2,0-9.5,6-10.9,14.2c-1.6-1.5-3.4-2.3-5.4-2.3c-5.7,0-10.4,7.2-11.3,16.7
				c-1.4-0.5-2.8-0.8-4.4-0.8c-8.6,0-15.6,8.9-15.6,19.9c0,0.1,0,0.1,0,0.2H1756.9z"/>
			<path class="st46" d="M1825.5,278.2c0-0.1,0-0.1,0-0.2c0-11-4.7-19.9-10.4-19.9c-0.2,0-0.5,0-0.7,0.1c-0.6-9.8-5-17.4-10.3-17.4
				c-2.5,0-4.8,1.7-6.6,4.5c-0.8-8.6-3.8-14.9-7.4-14.9c-3.5,0-6.4,6-7.3,14.2c-1.1-1.5-2.3-2.3-3.6-2.3c-3.8,0-6.9,7.2-7.5,16.7
				c-0.9-0.5-1.9-0.8-2.9-0.8c-5.8,0-10.4,8.9-10.4,19.9c0,0.1,0,0.1,0,0.2H1825.5z"/>
			<path class="st44" d="M1863.6,278.2c0-0.4,0-0.8,0-1.2c0-12.2-4.8-22.1-10.6-22.1c-2.2,0-4.2,1.3-5.8,3.6
				c-1.4-10.8-4.7-18.3-8.5-18.3c-2.9,0-5.5,4.3-7.2,11.1c-1.7-2.4-3.7-3.7-5.9-3.7c-4.6,0-8.6,6.1-10,14.7c-1.4-1.4-3-2.3-4.7-2.3
				c-5.2,0-9.6,7.9-10.5,18.2H1863.6z"/>
			<g>
				<rect x="1676.8" y="263.7" class="st16" width="3.3" height="14.4"/>
				<path class="st47" d="M1686.8,251.1c2.8,10.4-3.8,16-8.4,16c-4.6,0-11.4-7.3-8.4-16c2.9-8.5,3.8-16,8.4-16
					C1683.1,235,1684.5,242.4,1686.8,251.1z"/>
			</g>
			<path class="st44" d="M1954.7,278.2c0-0.6,0-1.2,0-1.8c0-18.1-3.7-32.8-8.3-32.8c-1.7,0-3.3,2-4.6,5.4c-1.1-16-3.7-27.2-6.7-27.2
				c-2.3,0-4.3,6.4-5.6,16.5c-1.3-3.5-2.9-5.5-4.6-5.5c-3.6,0-6.7,9.1-7.9,21.8c-1.1-2.1-2.4-3.3-3.7-3.3c-4.1,0-7.5,11.7-8.2,27
				H1954.7z"/>
			<path class="st45" d="M1953.6,278.2c0,0,0-0.1,0-0.1c0-8.6-5.5-15.6-12.2-15.6c-0.3,0-0.6,0-0.8,0c-0.8-7.7-5.9-13.6-12.1-13.6
				c-2.9,0-5.6,1.3-7.7,3.5c-1-6.7-4.5-11.7-8.7-11.7c-4,0-7.5,4.7-8.6,11.1c-1.3-1.2-2.7-1.8-4.2-1.8c-4.4,0-8.1,5.7-8.8,13.1
				c-1.1-0.4-2.2-0.6-3.4-0.6c-6.8,0-12.2,7-12.2,15.6c0,0,0,0.1,0,0.1H1953.6z"/>
			<path class="st46" d="M2114.6,278.2c0-0.1,0-0.1,0-0.2c0-11.7-3.7-21.2-8.2-21.2c-0.2,0-0.4,0-0.6,0.1
				c-0.5-10.5-3.9-18.6-8.1-18.6c-2,0-3.8,1.8-5.2,4.8c-0.7-9.2-3-15.9-5.8-15.9c-2.7,0-5,6.4-5.7,15.2c-0.8-1.6-1.8-2.5-2.8-2.5
				c-3,0-5.4,7.7-5.9,17.8c-0.7-0.5-1.5-0.8-2.3-0.8c-4.5,0-8.2,9.5-8.2,21.2c0,0.1,0,0.1,0,0.2H2114.6z"/>
			<path class="st45" d="M2080.8,278.2c0,0,0-0.1,0-0.1c0-8.6-9-15.6-20-15.6c-0.5,0-0.9,0-1.4,0c-1.2-7.7-9.6-13.7-19.8-13.7
				c-4.8,0-9.2,1.3-12.6,3.5c-1.6-6.7-26.4-7-28.1-0.6c-2-1.2-4.4-1.8-6.9-1.8c-7.3,0-13.3,5.7-14.4,13.1c-1.8-0.4-3.6-0.6-5.6-0.6
				c-11,0-20,7-20,15.6c0,0,0,0.1,0,0.1H2080.8z"/>
			<path class="st46" d="M2002.3,278.2c0,0,0-0.1,0-0.1c0-7.2-3.7-13.1-8.2-13.1c-0.2,0-0.4,0-0.6,0c-0.5-6.5-3.9-11.5-8.1-11.5
				c-2,0-3.8,1.1-5.2,3c-0.7-5.6-3-9.8-5.8-9.8c-2.7,0-5,3.9-5.7,9.4c-0.8-1-1.8-1.5-2.8-1.5c-3,0-5.4,4.8-5.9,11
				c-0.7-0.3-1.5-0.5-2.3-0.5c-4.5,0-8.2,5.9-8.2,13.1c0,0,0,0.1,0,0.1H2002.3z"/>
			<g>
				<rect x="1765.9" y="248.9" class="st16" width="5.2" height="29.2"/>
				<path class="st48" d="M1791.1,235.3c0.2-0.8,0.4-1.7,0.4-2.7c0-5.2-4-9.4-9-9.4c-1.8,0-3.6,0.6-5,1.6c0-0.2,0-0.4,0-0.6
					c0-5.2-4-9.4-9-9.4c-5,0-9,4.2-9,9.4c0,0.2,0,0.4,0,0.6c-1.4-1-3.1-1.6-5-1.6c-5,0-9,4.2-9,9.4c0,0.9,0.1,1.8,0.4,2.7
					c-2.7,1.6-4.6,4.7-4.6,8.2c0,5.2,4,9.4,9,9.4c0.3,0,0.6,0,1-0.1c1.5,3.1,4.5,5.2,8,5.2c3.5,0,6.6-2.1,8.1-5.2
					c0.4,0.1,0.9,0.1,1.3,0.1c0.3,0,0.6,0,1-0.1c1.5,3.1,4.5,5.2,8,5.2c3.5,0,6.6-2.1,8-5.2c0.3,0,0.6,0.1,1,0.1c5,0,9-4.2,9-9.4
					C1795.7,239.9,1793.8,236.9,1791.1,235.3z"/>
			</g>
			<g>
				<rect x="1849.4" y="244.9" class="st16" width="5.9" height="33.2"/>
				<path class="st48" d="M1878.1,229.4c0.3-1,0.4-2,0.4-3c0-5.9-4.6-10.6-10.2-10.6c-2.1,0-4,0.7-5.7,1.8c0-0.2,0-0.4,0-0.6
					c0-5.9-4.6-10.6-10.2-10.6c-5.7,0-10.2,4.8-10.2,10.6c0,0.2,0,0.4,0,0.6c-1.6-1.1-3.6-1.8-5.7-1.8c-5.7,0-10.2,4.8-10.2,10.6
					c0,1.1,0.2,2.1,0.4,3c-3.1,1.8-5.2,5.3-5.2,9.3c0,5.9,4.6,10.6,10.2,10.6c0.4,0,0.7,0,1.1-0.1c1.7,3.5,5.1,5.9,9.1,5.9
					c4,0,7.5-2.4,9.2-5.9c0.5,0.1,1,0.1,1.5,0.1c0.4,0,0.7,0,1.1-0.1c1.7,3.5,5.1,5.9,9.1,5.9c4,0,7.5-2.4,9.1-5.9
					c0.4,0,0.7,0.1,1.1,0.1c5.7,0,10.2-4.8,10.2-10.6C1883.3,234.7,1881.2,231.3,1878.1,229.4z"/>
			</g>
			<g>
				<rect x="2051.5" y="263.7" class="st16" width="3.3" height="14.4"/>
				<path class="st47" d="M2061.5,251.1c2.8,10.4-3.8,16-8.4,16c-4.6,0-11.4-7.3-8.4-16c2.9-8.5,3.8-16,8.4-16
					C2057.8,235,2059.2,242.4,2061.5,251.1z"/>
			</g>
		</g>
	</g>
	<g>
		<rect x="1655.1" y="277.7" class="st19" width="934.2" height="2.8"/>
		<rect x="1655.1" y="279.5" class="st20" width="934.2" height="5"/>
	</g>
	<g>
		<polygon class="st21" points="1782.8,275 1765.5,275 1763.4,270.9 1784.9,270.9 		"/>
		<g>
			<ellipse class="st21" cx="1769.5" cy="276.1" rx="2" ry="1.8"/>
			<ellipse class="st21" cx="1778.8" cy="276.1" rx="2" ry="1.8"/>
		</g>
		<polygon class="st21" points="1823.4,275 1806.2,275 1804.1,270.9 1825.5,270.9 		"/>
		<g>
			<ellipse class="st21" cx="1810.2" cy="276.1" rx="2" ry="1.8"/>
			<ellipse class="st21" cx="1819.5" cy="276.1" rx="2" ry="1.8"/>
		</g>
		<polygon class="st21" points="1780.9,250.5 1767.4,250.5 1765.7,254.6 1782.5,254.6 		"/>
		<polygon class="st21" points="1821.6,250.5 1808.1,250.5 1806.4,254.6 1823.2,254.6 		"/>
		<rect x="1757.5" y="252.5" class="st22" width="74" height="20.2"/>
		<rect x="1757.5" y="266.5" class="st23" width="74" height="6.2"/>
		<rect x="1763.6" y="256.7" class="st24" width="7.5" height="8"/>
		<rect x="1777.1" y="256.7" class="st24" width="7.5" height="8"/>
		<rect x="1790.5" y="256.7" class="st24" width="7.5" height="8"/>
		<rect x="1803.9" y="256.7" class="st24" width="7.5" height="8"/>
		<rect x="1817.3" y="256.7" class="st24" width="7.5" height="8"/>
		<polygon class="st21" points="1861.6,275 1844.3,275 1842.2,270.9 1863.7,270.9 		"/>
		<g>
			<ellipse class="st21" cx="1848.3" cy="276.1" rx="2" ry="1.8"/>
			<ellipse class="st21" cx="1857.6" cy="276.1" rx="2" ry="1.8"/>
		</g>
		<polygon class="st21" points="1902.2,275 1885,275 1882.9,270.9 1904.4,270.9 		"/>
		<g>
			<ellipse class="st21" cx="1889" cy="276.1" rx="2" ry="1.8"/>
			<path class="st21" d="M1900.3,276.1c0,1-0.9,1.8-2,1.8c-1.1,0-2-0.8-2-1.8c0-1,0.9-1.8,2-1.8
				C1899.4,274.3,1900.3,275.1,1900.3,276.1z"/>
		</g>
		<polygon class="st21" points="1859.7,250.5 1846.2,250.5 1844.5,254.6 1861.4,254.6 		"/>
		<polygon class="st21" points="1900.4,250.5 1886.9,250.5 1885.2,254.6 1902,254.6 		"/>
		<rect x="1836.3" y="252.5" class="st22" width="74" height="20.2"/>
		<rect x="1836.3" y="266.5" class="st23" width="74" height="6.2"/>
		<rect x="1842.4" y="256.7" class="st24" width="7.5" height="8"/>
		<rect x="1855.9" y="256.7" class="st24" width="7.5" height="8"/>
		<rect x="1869.3" y="256.7" class="st24" width="7.5" height="8"/>
		<rect x="1882.7" y="256.7" class="st24" width="7.5" height="8"/>
		<rect x="1896.1" y="256.7" class="st24" width="7.5" height="8"/>
		<polygon class="st21" points="1940.4,275 1923.1,275 1921,270.9 1942.5,270.9 		"/>
		<g>
			<ellipse class="st21" cx="1927.1" cy="276.1" rx="2" ry="1.8"/>
			<path class="st21" d="M1938.5,276.1c0,1-0.9,1.8-2,1.8c-1.1,0-2-0.8-2-1.8c0-1,0.9-1.8,2-1.8
				C1937.6,274.3,1938.5,275.1,1938.5,276.1z"/>
		</g>
		<polygon class="st21" points="1981,275 1963.8,275 1961.7,270.9 1983.2,270.9 		"/>
		<g>
			<path class="st21" d="M1969.8,276.1c0,1-0.9,1.8-2,1.8c-1.1,0-2.1-0.8-2.1-1.8c0-1,0.9-1.8,2.1-1.8
				C1968.9,274.3,1969.8,275.1,1969.8,276.1z"/>
			<ellipse class="st21" cx="1977.1" cy="276.1" rx="2" ry="1.8"/>
		</g>
		<polygon class="st21" points="1938.5,250.5 1925,250.5 1923.4,254.6 1940.2,254.6 		"/>
		<polygon class="st21" points="1979.2,250.5 1965.7,250.5 1964,254.6 1980.8,254.6 		"/>
		<rect x="1915.1" y="252.5" class="st22" width="74" height="20.2"/>
		<rect x="1915.1" y="266.5" class="st23" width="74" height="6.2"/>
		<rect x="1921.3" y="256.7" class="st24" width="7.5" height="8"/>
		<rect x="1934.7" y="256.7" class="st24" width="7.5" height="8"/>
		<rect x="1948.1" y="256.7" class="st24" width="7.5" height="8"/>
		<rect x="1961.5" y="256.7" class="st24" width="7.5" height="8"/>
		<rect x="1974.9" y="256.7" class="st24" width="7.5" height="8"/>
	</g>
</g>
<g id="Layer_2">
</g>
</svg>
