<?xml version="1.0" encoding="utf-8"?>
<!-- Generator: Adobe Illustrator 17.1.0, SVG Export Plug-In . SVG Version: 6.00 Build 0)  -->
<!DOCTYPE svg PUBLIC "-//W3C//DTD SVG 1.1//EN" "http://www.w3.org/Graphics/SVG/1.1/DTD/svg11.dtd">
<svg version="1.1" xmlns="http://www.w3.org/2000/svg" xmlns:xlink="http://www.w3.org/1999/xlink" x="0px" y="0px" width="1024px"
	 height="284.5px" viewBox="2088 0 1024 284.5" style="enable-background:new 2088 0 1024 284.5;" xml:space="preserve">
<style type="text/css">
	.st0{fill:#E4E5E6;}
	.st1{fill:#8D9293;}
	.st2{fill:none;}
	.st3{enable-background:new    ;}
	.st4{fill:#383737;}
	.st5{font-family:'GothamLight';}
	.st6{font-size:14;}
	.st7{font-family:'GothamMedium';}
	.st8{fill:#E2FFA3;}
	.st9{fill:#B6E086;}
	.st10{fill:#CDF191;}
	.st11{fill:#6ACE5B;}
	.st12{fill:#B3EC94;}
	.st13{fill:#BDFF61;}
	.st14{fill:#6D4337;}
	.st15{fill:#7DE205;}
	.st16{fill:#6D603E;}
	.st17{fill:#FFC0C0;}
	.st18{fill:#6D3E37;}
	.st19{fill:#844800;}
	.st20{fill:#BFAF97;}
	.st21{fill:#707070;}
	.st22{fill:#FFE2AE;}
	.st23{fill:#FF0808;}
	.st24{fill:#FFFFFF;}
	.st25{fill:#E2EDCE;}
	.st26{fill:#B6CCB1;}
	.st27{fill:#CDDDBC;}
	.st28{fill:#6ABA5B;}
	.st29{fill:#B3D894;}
	.st30{fill:#BDFC61;}
	.st31{fill:#7DCE05;}
	.st32{fill:#649647;}
	.st33{fill:#FFD996;}
	.st34{fill:#F8B879;}
	.st35{fill:#FFC984;}
	.st36{fill:#C1A835;}
	.st37{fill:#FFC66E;}
	.st38{fill:#FFEA3B;}
	.st39{fill:#D4BC00;}
	.st40{fill:#BB8421;}
	.st41{fill:#DDD47F;}
	.st42{fill:#B1B362;}
	.st43{fill:#C8C46D;}
	.st44{fill:#6A9B07;}
	.st45{fill:#B3B940;}
	.st46{fill:#BDDD0D;}
	.st47{fill:#7DAF00;}
	.st48{fill:#647700;}
	.st49{fill:#EBF2FC;}
	.st50{fill:#D5DBE1;}
	.st51{fill:#E3E8EC;}
	.st52{fill:#D3D3D3;}
	.st53{fill:#D4E0FF;}
	.st54{fill:#E5E5E5;}
</style>
<g id="scenery">
	<rect id="signpost_3_" x="2180.1" y="12.1" class="st0" width="16.6" height="255"/>
	<g id="_x30_4-sign_3_">
		<polygon id="_x30_4-sign-R_3_" class="st0" points="2325.1,142.7 2312.4,155.2 2180.9,155.2 2180.9,130.1 2312.4,130.1 		"/>
		<polygon id="_x30_4-shadow_3_" class="st1" points="2197,129.8 2197,155.2 2204.6,155.2 		"/>
		<rect x="2211.6" y="136" class="st2" width="73.8" height="13.5"/>
		<text id="_x30_4-Summary_3_" transform="matrix(1 0 0 1 2211.6001 146.2697)" class="st4 st5 st6">Summary</text>
	</g>
	<g id="_x30_3-sign_6_">
		<polygon id="_x30_3-sign_7_" class="st0" points="2325.1,108.9 2312.4,121.3 2180.9,121.3 2180.9,96.3 2312.4,96.3 		"/>
		<polygon id="_x30_3-shadow_3_" class="st1" points="2197,96 2197,121.4 2204.6,121.4 		"/>
		<rect x="2211.6" y="102" class="st2" width="113.5" height="13.5"/>
		<text id="_x30_3-guardian_3_" transform="matrix(1 0 0 1 2211.6001 112.2697)" class="st7 st6">Guardian Info</text>
	</g>
	<g id="_x30_2-sign_3_">
		<polygon id="_x30_2-signbg_3_" class="st0" points="2325.1,75.1 2312.4,87.6 2180.9,87.6 2180.9,62.5 2312.4,62.5 		"/>
		<polygon id="_x30_2-shadow_3_" class="st1" points="2197,62.3 2197,87.6 2204.6,87.6 		"/>
		<rect x="2211.6" y="69.3" class="st2" width="120.1" height="13.5"/>
		<text id="_x30_2-student_3_" transform="matrix(1 0 0 1 2211.6001 79.5197)" class="st4 st5 st6">Student Info</text>
	</g>
	<g id="_x30_1-sign_3_">
		<polygon id="_x30_1-signbg_3_" class="st0" points="2325.1,41.4 2312.4,53.8 2180.9,53.8 2180.9,28.8 2312.4,28.8 		"/>
		<polygon id="_x30_1-shadow_3_" class="st1" points="2197,28.5 2197,53.9 2204.6,53.9 		"/>
		<rect x="2211.6" y="35.3" class="st2" width="77.3" height="18.5"/>
		<text id="_x30_1-Welcome_3_" transform="matrix(1 0 0 1 2211.6001 45.5197)" class="st4 st5 st6">Welcome</text>
	</g>
	<rect id="signpost_9_" x="2180.1" y="12.1" class="st0" width="16.6" height="255"/>
	<g id="_x30_4-sign_9_">
		<polygon id="_x30_4-sign-R_9_" class="st0" points="2325.1,142.7 2312.4,155.2 2180.9,155.2 2180.9,130.1 2312.4,130.1 		"/>
		<polygon id="_x30_4-shadow_9_" class="st1" points="2197,129.8 2197,155.2 2204.6,155.2 		"/>
		<rect x="2211.6" y="136" class="st2" width="73.8" height="13.5"/>
		<text id="_x30_4-Summary_9_" transform="matrix(1 0 0 1 2211.6001 146.2697)" class="st4 st5 st6">Summary</text>
	</g>
	<g id="_x30_3-sign_18_">
		<polygon id="_x30_3-sign_19_" class="st0" points="2325.1,108.9 2312.4,121.3 2180.9,121.3 2180.9,96.3 2312.4,96.3 		"/>
		<polygon id="_x30_3-shadow_9_" class="st1" points="2197,96 2197,121.4 2204.6,121.4 		"/>
		<rect x="2211.6" y="102" class="st2" width="113.5" height="13.5"/>
		<text id="_x30_3-guardian_9_" transform="matrix(1 0 0 1 2211.6001 112.2697)" class="st7 st6">Guardian Info</text>
	</g>
	<g id="_x30_2-sign_9_">
		<polygon id="_x30_2-signbg_9_" class="st0" points="2325.1,75.1 2312.4,87.6 2180.9,87.6 2180.9,62.5 2312.4,62.5 		"/>
		<polygon id="_x30_2-shadow_9_" class="st1" points="2197,62.3 2197,87.6 2204.6,87.6 		"/>
		<rect x="2211.6" y="69.3" class="st2" width="120.1" height="13.5"/>
		<text id="_x30_2-student_9_" transform="matrix(1 0 0 1 2211.6001 79.5197)" class="st4 st5 st6">Student Info</text>
	</g>
	<g id="_x30_1-sign_9_">
		<polygon id="_x30_1-signbg_9_" class="st0" points="2325.1,41.4 2312.4,53.8 2180.9,53.8 2180.9,28.8 2312.4,28.8 		"/>
		<polygon id="_x30_1-shadow_9_" class="st1" points="2197,28.5 2197,53.9 2204.6,53.9 		"/>
		<rect x="2211.6" y="35.3" class="st2" width="77.3" height="18.5"/>
		<text id="_x30_1-Welcome_9_" transform="matrix(1 0 0 1 2211.6001 45.5197)" class="st4 st5 st6">Welcome</text>
	</g>
	<rect id="signpost_8_" x="2180.1" y="12.1" class="st0" width="16.6" height="255"/>
	<g id="_x30_4-sign_8_">
		<polygon id="_x30_4-sign-R_8_" class="st0" points="2325.1,142.7 2312.4,155.2 2180.9,155.2 2180.9,130.1 2312.4,130.1 		"/>
		<polygon id="_x30_4-shadow_8_" class="st1" points="2197,129.8 2197,155.2 2204.6,155.2 		"/>
		<rect x="2211.6" y="136" class="st2" width="73.8" height="13.5"/>
		<text id="_x30_4-Summary_8_" transform="matrix(1 0 0 1 2211.6001 146.2697)" class="st4 st5 st6">Summary</text>
	</g>
	<g id="_x30_3-sign_16_">
		<polygon id="_x30_3-sign_17_" class="st0" points="2325.1,108.9 2312.4,121.3 2180.9,121.3 2180.9,96.3 2312.4,96.3 		"/>
		<polygon id="_x30_3-shadow_8_" class="st1" points="2197,96 2197,121.4 2204.6,121.4 		"/>
		<rect x="2211.6" y="102" class="st2" width="113.5" height="13.5"/>
		<text id="_x30_3-guardian_8_" transform="matrix(1 0 0 1 2211.6001 112.2697)" class="st7 st6">Guardian Info</text>
	</g>
	<g id="_x30_2-sign_8_">
		<polygon id="_x30_2-signbg_8_" class="st0" points="2325.1,75.1 2312.4,87.6 2180.9,87.6 2180.9,62.5 2312.4,62.5 		"/>
		<polygon id="_x30_2-shadow_8_" class="st1" points="2197,62.3 2197,87.6 2204.6,87.6 		"/>
		<rect x="2211.6" y="69.3" class="st2" width="120.1" height="13.5"/>
		<text id="_x30_2-student_8_" transform="matrix(1 0 0 1 2211.6001 79.5197)" class="st4 st5 st6">Student Info</text>
	</g>
	<g id="_x30_1-sign_8_">
		<polygon id="_x30_1-signbg_8_" class="st0" points="2325.1,41.4 2312.4,53.8 2180.9,53.8 2180.9,28.8 2312.4,28.8 		"/>
		<polygon id="_x30_1-shadow_8_" class="st1" points="2197,28.5 2197,53.9 2204.6,53.9 		"/>
		<rect x="2211.6" y="35.3" class="st2" width="77.3" height="18.5"/>
		<text id="_x30_1-Welcome_8_" transform="matrix(1 0 0 1 2211.6001 45.5197)" class="st4 st5 st6">Welcome</text>
	</g>
	<g>
		<path class="st41" d="M2102.8,130.7c-67.6,0-122.4,66-122.4,147.5h244.9C2225.2,196.7,2170.4,130.7,2102.8,130.7z"/>
		<path class="st42" d="M2224.2,210c-51.3,0-93,30.5-93,68.1h185.9C2317.1,240.5,2275.5,210,2224.2,210z"/>
		<path class="st42" d="M2476.4,169.2c-55.4,0-100.2,47.9-100.2,107h200.5C2576.6,217.1,2531.7,169.2,2476.4,169.2z"/>
		<path class="st43" d="M2323.2,192.4c-35.6,0-64.5,38.4-64.5,85.7h129C2387.7,230.8,2358.9,192.4,2323.2,192.4z"/>
	</g>
	<g>
		<g>
			<path class="st46" d="M2114.6,278.2c0-0.1,0-0.1,0-0.2c0-11.7-3.7-21.2-8.2-21.2c-0.2,0-0.4,0-0.6,0.1
				c-0.5-10.5-3.9-18.6-8.1-18.6c-2,0-3.8,1.8-5.2,4.8c-0.7-9.2-3-15.9-5.8-15.9c-2.7,0-5,6.4-5.7,15.2c-0.8-1.6-1.8-2.5-2.8-2.5
				c-3,0-5.4,7.7-5.9,17.8c-0.7-0.5-1.5-0.8-2.3-0.8c-4.5,0-8.2,9.5-8.2,21.2c0,0.1,0,0.1,0,0.2H2114.6z"/>
			<path class="st46" d="M2154.1,278.2c0,0,0-0.1,0-0.1c0-9.4-3.7-17-8.2-17c-0.2,0-0.4,0-0.6,0c-0.5-8.4-3.9-14.9-8.1-14.9
				c-2,0-3.8,1.4-5.2,3.8c-0.7-7.3-3-12.8-5.8-12.8c-2.7,0-5,5.1-5.7,12.2c-0.8-1.3-1.8-2-2.8-2c-3,0-5.4,6.2-5.9,14.3
				c-0.7-0.4-1.5-0.7-2.3-0.7c-4.5,0-8.2,7.6-8.2,17c0,0,0,0.1,0,0.1H2154.1z"/>
			<path class="st45" d="M2217.4,278.2c0-0.1,0-0.1,0-0.1c0-9.5-6.6-17.2-14.7-17.2c-0.3,0-0.7,0-1,0c-0.9-8.5-7.1-15.1-14.6-15.1
				c-3.5,0-6.8,1.5-9.3,3.9c-1.2-7.4-5.4-12.9-10.4-12.9c-4.9,0-9,5.2-10.3,12.3c-1.5-1.3-3.2-2-5.1-2c-5.4,0-9.8,6.3-10.6,14.5
				c-1.3-0.4-2.7-0.7-4.1-0.7c-8.1,0-14.7,7.7-14.7,17.2c0,0,0,0.1,0,0.1H2217.4z"/>
			<path class="st44" d="M2334.8,278.2c0-0.8,0-1.6,0-2.4c0-23.9-4.9-43.4-11-43.4c-2.2,0-4.3,2.6-6.1,7.1
				c-1.4-21.1-14.6-27.5-16.3-14.2c-1.8-4.6-3.9-7.3-6.1-7.3c-4.8,0-8.9,12-10.4,28.9c-1.5-2.8-3.1-4.4-4.8-4.4
				c-5.4,0-9.9,15.4-10.8,35.7H2334.8z"/>
			<path class="st45" d="M2333.4,278.2c0-0.1,0-0.1,0-0.2c0-11.4-8.1-20.6-18.2-20.6c-0.4,0-0.8,0-1.3,0.1c-1.1-10.2-8.8-18-18.1-18
				c-4.4,0-8.4,1.7-11.5,4.6c-1.5-8.9-6.7-15.4-12.9-15.4c-6,0-11.1,6.2-12.8,14.7c-1.9-1.5-4-2.4-6.3-2.4
				c-6.6,0-12.1,7.5-13.1,17.3c-1.6-0.5-3.3-0.8-5.1-0.8c-10.1,0-18.2,9.2-18.2,20.6c0,0.1,0,0.1,0,0.2H2333.4z"/>
			<path class="st44" d="M2483,278.2c0-0.8,0-1.6,0-2.4c0-23.9,4.9-43.4,11-43.4c2.2,0,4.3,2.6,6.1,7.1
				c1.4-21.1,14.6-27.5,16.3-14.2c1.8-4.6,3.9-7.3,6.1-7.3c4.8,0,8.9,12,10.4,28.9c1.5-2.8,3.1-4.4,4.8-4.4
				c5.4,0,9.9,15.4,10.8,35.7H2483z"/>
			<path class="st45" d="M2484.4,278.2c0-0.1,0-0.1,0-0.2c0-11.4,7.2-20.6,16.2-20.6c0.4,0,0.7,0,1.1,0.1c1-10.2,7.8-18,16-18
				c3.9,0,7.4,1.7,10.2,4.6c1.3-8.9,5.9-15.4,11.4-15.4c5.4,0,9.9,6.2,11.3,14.7c1.7-1.5,3.5-2.4,5.5-2.4c5.9,0,10.7,7.5,11.7,17.3
				c1.4-0.5,2.9-0.8,4.5-0.8c8.9,0,16.2,9.2,16.2,20.6c0,0.1,0,0.1,0,0.2H2484.4z"/>
			<path class="st46" d="M2404.5,278.2c0-0.1,0-0.1,0-0.2c0-11.4-4.8-20.6-10.8-20.6c-0.2,0-0.5,0-0.7,0.1c-0.7-10.2-5.2-18-10.7-18
				c-2.6,0-5,1.7-6.8,4.6c-0.9-8.9-4-15.4-7.6-15.4c-3.6,0-6.6,6.2-7.6,14.7c-1.1-1.5-2.4-2.4-3.7-2.4c-3.9,0-7.2,7.5-7.8,17.3
				c-1-0.5-2-0.8-3-0.8c-6,0-10.8,9.2-10.8,20.6c0,0.1,0,0.1,0,0.2H2404.5z"/>
			<path class="st44" d="M2444,278.2c0-0.4,0-0.8,0-1.3c0-12.6-4.9-22.9-11-22.9c-2.2,0-4.3,1.4-6,3.8c-1.4-11.1-4.8-19-8.8-19
				c-3,0-5.7,4.5-7.5,11.5c-1.7-2.4-3.9-3.9-6.1-3.9c-4.8,0-8.9,6.4-10.4,15.2c-1.5-1.5-3.1-2.3-4.8-2.3c-5.4,0-9.9,8.2-10.8,18.9
				H2444z"/>
			<path class="st44" d="M2489.4,278.2c0-0.4,0-0.8,0-1.3c0-12.6-4.9-22.9-11-22.9c-2.2,0-4.3,1.4-6,3.8c-1.4-11.1-4.8-19-8.8-19
				c-3,0-5.7,4.5-7.5,11.5c-1.8-2.4-3.9-3.9-6.1-3.9c-4.8,0-8.9,6.4-10.4,15.2c-1.5-1.5-3.1-2.3-4.8-2.3c-5.4,0-9.9,8.2-10.8,18.9
				H2489.4z"/>
			<g>
				<rect x="2489.5" y="266.9" class="st16" width="2.5" height="11.3"/>
				<path class="st47" d="M2499.5,250.2c2.9,10.8-3.9,16.6-8.7,16.6c-4.8,0-11.8-7.5-8.7-16.6c3-8.8,3.9-16.6,8.7-16.6
					C2495.6,233.6,2497.1,241.3,2499.5,250.2z"/>
			</g>
			<g>
				<rect x="2240.5" y="252.7" class="st16" width="4.5" height="25.5"/>
				<path class="st48" d="M2262.5,240.8c0.2-0.7,0.3-1.5,0.3-2.3c0-4.5-3.5-8.1-7.8-8.1c-1.6,0-3.1,0.5-4.3,1.4c0-0.2,0-0.3,0-0.5
					c0-4.5-3.5-8.1-7.8-8.1c-4.3,0-7.9,3.7-7.9,8.1c0,0.2,0,0.3,0,0.5c-1.2-0.9-2.7-1.4-4.3-1.4c-4.3,0-7.9,3.6-7.9,8.1
					c0,0.8,0.1,1.6,0.3,2.3c-2.4,1.4-4,4.1-4,7.1c0,4.5,3.5,8.2,7.9,8.2c0.3,0,0.6,0,0.8,0c1.3,2.7,3.9,4.5,7,4.5
					c3.1,0,5.7-1.9,7-4.5c0.4,0.1,0.8,0.1,1.1,0.1c0.3,0,0.6,0,0.8,0c1.3,2.7,3.9,4.5,7,4.5c3.1,0,5.7-1.8,7-4.5c0.3,0,0.6,0,0.8,0
					c4.3,0,7.9-3.7,7.9-8.2C2266.5,244.9,2264.9,242.2,2262.5,240.8z"/>
			</g>
			<g>
				<rect x="2183.5" y="246.4" class="st16" width="5.7" height="31.7"/>
				<path class="st48" d="M2210.9,231.6c0.3-0.9,0.4-1.9,0.4-2.9c0-5.6-4.4-10.2-9.8-10.2c-2,0-3.9,0.6-5.4,1.7c0-0.2,0-0.4,0-0.6
					c0-5.6-4.4-10.2-9.8-10.2c-5.4,0-9.8,4.6-9.8,10.2c0,0.2,0,0.4,0,0.6c-1.6-1.1-3.4-1.7-5.4-1.7c-5.4,0-9.8,4.5-9.8,10.2
					c0,1,0.1,2,0.4,2.9c-3,1.7-5,5.1-5,8.9c0,5.6,4.4,10.2,9.8,10.2c0.4,0,0.7,0,1-0.1c1.6,3.3,4.9,5.6,8.7,5.6
					c3.8,0,7.2-2.3,8.8-5.7c0.5,0.1,0.9,0.1,1.4,0.1c0.4,0,0.7,0,1.1-0.1c1.6,3.3,4.9,5.6,8.7,5.6c3.8,0,7.1-2.3,8.7-5.6
					c0.3,0,0.7,0.1,1,0.1c5.4,0,9.8-4.6,9.8-10.2C2216,236.6,2213.9,233.3,2210.9,231.6z"/>
			</g>
			<g>
				<rect x="2089.8" y="263.7" class="st16" width="3.3" height="14.4"/>
				<path class="st47" d="M2099.9,251.1c2.8,10.4-3.8,16-8.4,16c-4.6,0-11.4-7.3-8.4-16c2.9-8.5,3.8-16,8.4-16
					C2096.1,235,2097.5,242.4,2099.9,251.1z"/>
			</g>
			<g>
				<rect x="2455.2" y="266.9" class="st16" width="2.5" height="11.3"/>
				<path class="st47" d="M2465.2,250.2c2.9,10.8-3.9,16.6-8.7,16.6c-4.8,0-11.8-7.5-8.7-16.6c3-8.8,3.9-16.6,8.7-16.6
					C2461.3,233.6,2462.8,241.3,2465.2,250.2z"/>
			</g>
		</g>
	</g>
	<g>
		<rect x="1655.1" y="277.7" class="st19" width="934.2" height="2.8"/>
		<rect x="1655.1" y="279.5" class="st20" width="934.2" height="5"/>
	</g>
	<g>
		<path class="st49" d="M2936.9,129.8c-68,0-123.2,66.4-123.2,148.3H3060C3060,196.2,3004.9,129.8,2936.9,129.8z"/>
		<path class="st50" d="M3059,209.6c-51.6,0-93.5,30.7-93.5,68.5h187C3152.5,240.2,3110.6,209.6,3059,209.6z"/>
		<path class="st51" d="M2638.9,188.4c-76.8,0-139.1,40.2-139.1,89.7H2778C2778,228.5,2715.8,188.4,2638.9,188.4z"/>
		<path class="st50" d="M2817.8,192.7c-35.8,0-64.9,38.2-64.9,85.4h129.7C2882.7,230.9,2853.7,192.7,2817.8,192.7z"/>
		<path class="st51" d="M3158.6,191.8c-35.8,0-64.9,38.6-64.9,86.2h129.7C3223.4,230.5,3194.4,191.8,3158.6,191.8z"/>
		<path class="st52" d="M3148.1,278.1c0-0.1,0-0.2,0-0.3c0-18.5-15.8-33.6-35.3-33.6c-0.8,0-1.6,0-2.4,0.1
			c-2.2-16.6-17-29.4-35-29.4c-8.5,0-16.3,2.8-22.3,7.6c-2.9-14.5-13-25.2-25-25.2c-11.7,0-21.6,10.1-24.7,24
			c-3.6-2.5-7.7-3.9-12.1-3.9c-12.9,0-23.5,12.2-25.5,28.2c-3.1-0.9-6.4-1.3-9.8-1.3c-19.5,0-35.3,15-35.3,33.6c0,0.1,0,0.2,0,0.3
			H3148.1z"/>
		<path class="st52" d="M2750,278.1c0-1.1,0-2.2,0-3.3c0-32.7-10.1-59.2-22.5-59.2c-4.6,0-8.8,3.6-12.4,9.7
			c-2.9-28.8-29.7-37.5-33.3-19.4c-3.6-6.3-7.9-10-12.5-10c-9.8,0-18.1,16.4-21.2,39.4c-3-3.8-6.3-6-9.9-6
			c-11.1,0-20.3,21.1-22.2,48.8H2750z"/>
		<path class="st53" d="M2749.7,278.1c0-0.1,0-0.2,0-0.3c0-16.1-9.4-29.2-21.1-29.2c-0.5,0-1,0-1.5,0.1
			c-1.3-14.4-10.2-25.5-20.9-25.5c-5.1,0-9.7,2.5-13.3,6.6c-1.7-12.6-7.7-21.9-14.9-21.9c-7,0-12.9,8.8-14.8,20.8
			c-2.2-2.2-4.6-3.4-7.2-3.4c-7.7,0-14,10.6-15.2,24.5c-1.9-0.8-3.8-1.2-5.9-1.2c-11.6,0-21.1,13.1-21.1,29.2c0,0.1,0,0.2,0,0.3
			H2749.7z"/>
		<path class="st54" d="M2842.4,278.1c0-0.1,0-0.2,0-0.3c0-16.1-6.3-29.2-14.1-29.2c-0.3,0-0.7,0-1,0.1c-0.9-14.4-6.8-25.5-14-25.5
			c-3.4,0-6.5,2.5-8.9,6.6c-1.1-12.6-5.2-21.9-10-21.9c-4.7,0-8.6,8.8-9.9,20.8c-1.4-2.2-3.1-3.4-4.8-3.4c-5.1,0-9.4,10.6-10.2,24.5
			c-1.2-0.7-2.6-1.2-3.9-1.2c-7.8,0-14.1,13.1-14.1,29.2c0,0.1,0,0.2,0,0.3H2842.4z"/>
		<path class="st52" d="M2928.8,278.1c0-0.6,0-1.2,0-1.8c0-17.9-9.1-32.5-20.2-32.5c-4.1,0-7.9,2-11.1,5.3
			c-2.6-15.8-8.9-26.9-16.2-26.9c-5.5,0-10.5,6.4-13.7,16.3c-3.2-3.5-7.1-5.5-11.3-5.5c-8.8,0-16.3,9-19.1,21.6
			c-2.7-2.1-5.7-3.3-8.9-3.3c-10,0-18.2,11.6-19.9,26.8H2928.8z"/>
		<path class="st52" d="M2590.4,278.1c0-0.8,0-1.5,0-2.3c0-23.2-4.8-42.1-10.7-42.1c-2.2,0-4.2,2.5-5.9,6.9
			c-1.4-20.5-14.1-26.7-15.8-13.8c-1.7-4.5-3.7-7.1-5.9-7.1c-4.7,0-8.6,11.7-10.1,28c-1.4-2.7-3-4.3-4.7-4.3
			c-5.3,0-9.6,15-10.5,34.7H2590.4z"/>
		<path class="st53" d="M2589,278.1c0-0.1,0-0.2,0-0.3c0-16.6-7-30-15.7-30c-0.4,0-0.7,0-1.1,0.1c-1-14.8-7.6-26.3-15.6-26.3
			c-3.8,0-7.2,2.5-9.9,6.8c-1.3-13-5.8-22.5-11.1-22.5c-5.2,0-9.6,9.1-11,21.5c-1.6-2.3-3.4-3.5-5.4-3.5c-5.7,0-10.4,10.9-11.3,25.2
			c-1.4-0.8-2.9-1.2-4.4-1.2c-8.7,0-15.7,13.4-15.7,30c0,0.1,0,0.2,0,0.3H2589z"/>
		<path class="st54" d="M2675.1,278.1c0-0.1,0-0.2,0-0.3c0-16.6-7.1-30.1-15.8-30.1c-0.4,0-0.7,0-1.1,0.1
			c-1-14.9-7.6-26.4-15.7-26.4c-3.8,0-7.3,2.5-10,6.8c-1.3-13-5.8-22.6-11.2-22.6c-5.2,0-9.7,9.1-11.1,21.5
			c-1.6-2.3-3.5-3.5-5.4-3.5c-5.8,0-10.5,10.9-11.4,25.3c-1.4-0.8-2.9-1.2-4.4-1.2c-8.7,0-15.8,13.5-15.8,30.1c0,0.1,0,0.2,0,0.3
			H2675.1z"/>
		<path class="st52" d="M2696.3,278.1c0-0.4,0-0.8,0-1.2c0-12.3-4.8-22.2-10.7-22.2c-2.2,0-4.2,1.3-5.9,3.7
			c-1.4-10.8-4.7-18.4-8.6-18.4c-2.9,0-5.5,4.4-7.2,11.2c-1.7-2.4-3.7-3.8-6-3.8c-4.7,0-8.6,6.2-10.1,14.8c-1.4-1.4-3-2.3-4.7-2.3
			c-5.3,0-9.6,7.9-10.5,18.3H2696.3z"/>
		<rect x="2508.4" y="263.6" class="st18" width="3.3" height="14.5"/>
		<path class="st24" d="M2518.5,250.8c2.8,10.5-3.8,16.1-8.4,16.1c-4.7,0-11.4-7.3-8.4-16.1c2.9-8.6,3.8-16.1,8.4-16.1
			C2514.7,234.7,2516.2,242.1,2518.5,250.8z"/>
		<path class="st52" d="M2788,278.1c0-0.6,0-1.2,0-1.8c0-18.2-3.8-33-8.4-33c-1.7,0-3.3,2-4.6,5.4c-1.1-16.1-3.7-27.4-6.7-27.4
			c-2.3,0-4.3,6.5-5.7,16.5c-1.3-3.5-2.9-5.6-4.7-5.6c-3.6,0-6.7,9.2-7.9,22c-1.1-2.1-2.4-3.4-3.7-3.4c-4.1,0-7.6,11.7-8.3,27.2
			H2788z"/>
		<path class="st53" d="M2786.9,278.1c0,0,0-0.1,0-0.1c0-8.6-5.5-15.7-12.3-15.7c-0.3,0-0.6,0-0.9,0c-0.8-7.7-5.9-13.7-12.2-13.7
			c-3,0-5.7,1.3-7.8,3.5c-1-6.8-4.5-11.7-8.7-11.7c-4.1,0-7.5,4.7-8.6,11.2c-1.3-1.2-2.7-1.8-4.2-1.8c-4.5,0-8.2,5.7-8.9,13.1
			c-1.1-0.4-2.2-0.6-3.4-0.6c-6.8,0-12.3,7-12.3,15.7c0,0,0,0.1,0,0.1H2786.9z"/>
		<path class="st54" d="M2961.7,278.1c0-0.1,0-0.2,0-0.3c0-17.6-5.5-31.8-12.2-31.8c-0.3,0-0.6,0-0.8,0.1
			c-0.8-15.7-5.9-27.8-12.1-27.8c-2.9,0-5.6,2.7-7.7,7.2c-1-13.7-4.5-23.8-8.7-23.8c-4.1,0-7.5,9.6-8.6,22.7
			c-1.3-2.4-2.7-3.7-4.2-3.7c-4.5,0-8.1,11.6-8.8,26.7c-1.1-0.8-2.2-1.3-3.4-1.3c-6.8,0-12.2,14.2-12.2,31.8c0,0.1,0,0.2,0,0.3
			H2961.7z"/>
		<path class="st54" d="M2988.5,278.1c0,0,0-0.1,0-0.2c0-9.4-3.7-17.1-8.2-17.1c-0.2,0-0.4,0-0.6,0c-0.5-8.4-4-15-8.2-15
			c-2,0-3.8,1.4-5.2,3.9c-0.7-7.4-3-12.8-5.8-12.8c-2.7,0-5,5.2-5.8,12.2c-0.8-1.3-1.8-2-2.8-2c-3,0-5.5,6.2-5.9,14.4
			c-0.7-0.4-1.5-0.7-2.3-0.7c-4.5,0-8.2,7.7-8.2,17.1c0,0,0,0.1,0,0.2H2988.5z"/>
		<path class="st53" d="M3049.2,278.1c0-0.1,0-0.2,0-0.2c0-14.6-8.5-26.5-18.9-26.5c-0.4,0-0.9,0-1.3,0.1
			c-1.2-13.1-9.1-23.2-18.7-23.2c-4.5,0-8.7,2.2-11.9,6c-1.5-11.4-6.9-19.9-13.4-19.9c-6.2,0-11.5,8-13.2,18.9
			c-1.9-2-4.2-3.1-6.5-3.1c-6.9,0-12.6,9.6-13.6,22.2c-1.7-0.7-3.4-1-5.3-1c-10.4,0-18.9,11.9-18.9,26.5c0,0.1,0,0.2,0,0.2H3049.2z"
			/>
		<path class="st53" d="M2914.7,278.1c0,0,0-0.1,0-0.1c0-8.7-9-15.7-20.1-15.7c-0.5,0-0.9,0-1.4,0c-1.2-7.8-9.7-13.8-19.9-13.8
			c-4.8,0-9.2,1.3-12.7,3.5c-1.6-6.8-26.5-7.1-28.3-0.6c-2.1-1.2-4.4-1.8-6.9-1.8c-7.3,0-13.4,5.7-14.5,13.2
			c-1.8-0.4-3.7-0.6-5.6-0.6c-11.1,0-20.1,7-20.1,15.7c0,0,0,0.1,0,0.1H2914.7z"/>
		<path class="st54" d="M2835.8,278.1c0,0,0-0.1,0-0.1c0-7.3-3.7-13.2-8.2-13.2c-0.2,0-0.4,0-0.6,0c-0.5-6.5-4-11.5-8.2-11.5
			c-2,0-3.8,1.1-5.2,3c-0.7-5.7-3-9.9-5.8-9.9c-2.7,0-5,4-5.8,9.4c-0.8-1-1.8-1.5-2.8-1.5c-3,0-5.5,4.8-5.9,11.1
			c-0.7-0.3-1.5-0.5-2.3-0.5c-4.5,0-8.2,5.9-8.2,13.2c0,0,0,0.1,0,0.1H2835.8z"/>
		<path class="st52" d="M3170.2,278.1c0-0.8,0-1.6,0-2.4c0-24.1-5-43.6-11.1-43.6c-2.2,0-4.3,2.6-6.1,7.2
			c-1.4-21.2-14.6-27.6-16.4-14.3c-1.8-4.6-3.9-7.4-6.2-7.4c-4.8,0-8.9,12.1-10.4,29c-1.5-2.8-3.1-4.4-4.9-4.4
			c-5.5,0-10,15.5-10.9,35.9H3170.2z"/>
		<path class="st53" d="M3198,278.1c0-0.1,0-0.2,0-0.3c0-17.5-10.4-31.6-23.4-31.6c-0.5,0-1.1,0-1.6,0.1
			c-1.4-15.6-11.3-27.7-23.2-27.7c-5.6,0-10.7,2.7-14.8,7.1c-1.9-13.7-8.6-23.7-16.5-23.7c-7.7,0-14.3,9.5-16.4,22.6
			c-2.4-2.4-5.1-3.7-8-3.7c-8.5,0-15.5,11.5-16.8,26.6c-2.1-0.8-4.2-1.3-6.5-1.3c-12.9,0-23.3,14.2-23.3,31.6c0,0.1,0,0.2,0,0.3
			H3198z"/>
		<rect x="2598" y="248.7" class="st16" width="5.3" height="29.4"/>
		<path class="st24" d="M2623.4,235c0.2-0.9,0.4-1.8,0.4-2.7c0-5.2-4.1-9.4-9.1-9.4c-1.9,0-3.6,0.6-5,1.6c0-0.2,0-0.4,0-0.6
			c0-5.2-4.1-9.4-9.1-9.4c-5,0-9.1,4.2-9.1,9.4c0,0.2,0,0.4,0,0.6c-1.4-1-3.2-1.6-5-1.6c-5,0-9.1,4.2-9.1,9.4c0,0.9,0.1,1.8,0.4,2.7
			c-2.8,1.6-4.6,4.7-4.6,8.2c0,5.2,4.1,9.4,9.1,9.4c0.3,0,0.7,0,1-0.1c1.5,3.1,4.6,5.2,8.1,5.2c3.6,0,6.6-2.1,8.1-5.2
			c0.4,0.1,0.9,0.1,1.3,0.1c0.3,0,0.7,0,1-0.1c1.5,3.1,4.5,5.2,8.1,5.2c3.5,0,6.6-2.1,8.1-5.2c0.3,0,0.6,0.1,1,0.1
			c5,0,9.1-4.2,9.1-9.4C2628,239.7,2626.1,236.6,2623.4,235z"/>
		<rect x="3075.4" y="252.5" class="st16" width="4.6" height="25.6"/>
		<path class="st24" d="M3097.5,240.5c0.2-0.7,0.3-1.5,0.3-2.3c0-4.5-3.5-8.2-7.9-8.2c-1.6,0-3.1,0.5-4.4,1.4c0-0.2,0-0.3,0-0.5
			c0-4.5-3.5-8.2-7.9-8.2c-4.4,0-7.9,3.7-7.9,8.2c0,0.2,0,0.3,0,0.5c-1.3-0.9-2.8-1.4-4.4-1.4c-4.4,0-7.9,3.7-7.9,8.2
			c0,0.8,0.1,1.6,0.3,2.3c-2.4,1.4-4,4.1-4,7.1c0,4.5,3.5,8.2,7.9,8.2c0.3,0,0.6,0,0.8,0c1.3,2.7,4,4.5,7.1,4.5
			c3.1,0,5.8-1.9,7.1-4.6c0.4,0.1,0.8,0.1,1.1,0.1c0.3,0,0.6,0,0.8,0c1.3,2.7,4,4.5,7,4.5c3.1,0,5.7-1.8,7-4.5c0.3,0,0.6,0,0.8,0
			c4.4,0,7.9-3.7,7.9-8.2C3101.5,244.6,3099.9,241.9,3097.5,240.5z"/>
		<rect x="3018.1" y="246.2" class="st16" width="5.7" height="31.9"/>
		<path class="st24" d="M3045.6,231.2c0.3-0.9,0.4-1.9,0.4-2.9c0-5.6-4.4-10.2-9.8-10.2c-2,0-3.9,0.6-5.5,1.7c0-0.2,0-0.4,0-0.6
			c0-5.6-4.4-10.2-9.8-10.2c-5.4,0-9.8,4.6-9.8,10.2c0,0.2,0,0.4,0,0.6c-1.6-1.1-3.4-1.7-5.5-1.7c-5.4,0-9.8,4.6-9.8,10.2
			c0,1,0.2,2,0.4,2.9c-3,1.7-5,5.1-5,8.9c0,5.6,4.4,10.2,9.8,10.2c0.4,0,0.7,0,1-0.1c1.6,3.3,4.9,5.6,8.8,5.6c3.9,0,7.2-2.3,8.8-5.7
			c0.5,0.1,0.9,0.1,1.4,0.1c0.4,0,0.7,0,1.1-0.1c1.6,3.3,4.9,5.6,8.8,5.6c3.8,0,7.2-2.3,8.8-5.6c0.3,0,0.7,0.1,1.1,0.1
			c5.4,0,9.8-4.6,9.8-10.2C3050.7,236.3,3048.6,233,3045.6,231.2z"/>
		<rect x="2682" y="244.7" class="st16" width="6" height="33.4"/>
		<path class="st24" d="M2710.9,229.1c0.3-1,0.4-2,0.4-3.1c0-5.9-4.6-10.7-10.3-10.7c-2.1,0-4.1,0.7-5.7,1.8c0-0.2,0-0.4,0-0.6
			c0-5.9-4.6-10.7-10.3-10.7c-5.7,0-10.3,4.8-10.3,10.7c0,0.2,0,0.4,0,0.6c-1.6-1.1-3.6-1.8-5.7-1.8c-5.7,0-10.3,4.8-10.3,10.7
			c0,1.1,0.2,2.1,0.4,3.1c-3.1,1.8-5.3,5.3-5.3,9.3c0,5.9,4.6,10.7,10.3,10.7c0.4,0,0.7,0,1.1-0.1c1.7,3.5,5.2,5.9,9.2,5.9
			c4.1,0,7.5-2.4,9.2-6c0.5,0.1,1,0.1,1.5,0.1c0.4,0,0.7,0,1.1-0.1c1.7,3.5,5.2,5.9,9.2,5.9c4,0,7.5-2.4,9.2-5.9
			c0.4,0,0.7,0.1,1.1,0.1c5.7,0,10.3-4.8,10.3-10.7C2716.1,234.4,2714,230.9,2710.9,229.1z"/>
		<g>
			<rect x="2885.3" y="263.6" class="st18" width="3.3" height="14.5"/>
			<path class="st24" d="M2895.3,250.8c2.8,10.5-3.8,16.1-8.4,16.1c-4.7,0-11.4-7.3-8.4-16.1c2.9-8.6,3.8-16.1,8.4-16.1
				C2891.6,234.7,2893,242.1,2895.3,250.8z"/>
		</g>
		<g>
			<rect x="2923.8" y="263.6" class="st18" width="3.3" height="14.5"/>
			<path class="st24" d="M2933.9,250.8c2.8,10.5-3.8,16.1-8.4,16.1c-4.7,0-11.4-7.3-8.4-16.1c2.9-8.6,3.8-16.1,8.4-16.1
				C2930.1,234.7,2931.6,242.1,2933.9,250.8z"/>
		</g>
		<g>
			<rect x="2486.5" y="277.6" class="st19" width="939.6" height="2.9"/>
			<rect x="2486.5" y="279.4" class="st20" width="939.6" height="5.1"/>
		</g>
		<g>
			<polygon class="st21" points="2780.2,274.8 2763.1,274.8 2761,270.7 2782.3,270.7 			"/>
			<g>
				<ellipse class="st21" cx="2767.1" cy="275.9" rx="2" ry="1.7"/>
				<ellipse class="st21" cx="2776.3" cy="275.9" rx="2" ry="1.7"/>
			</g>
			<polygon class="st21" points="2820.6,274.8 2803.5,274.8 2801.4,270.7 2822.7,270.7 			"/>
			<g>
				<ellipse class="st21" cx="2807.4" cy="275.9" rx="2" ry="1.7"/>
				<ellipse class="st21" cx="2816.7" cy="275.9" rx="2" ry="1.7"/>
			</g>
			<polygon class="st21" points="2778.4,250.5 2765,250.5 2763.4,254.6 2780,254.6 			"/>
			<polygon class="st21" points="2818.7,250.5 2805.3,250.5 2803.7,254.6 2820.4,254.6 			"/>
			<rect x="2755.2" y="252.5" class="st22" width="73.4" height="20"/>
			<rect x="2755.2" y="266.4" class="st23" width="73.4" height="6.1"/>
			<rect x="2761.3" y="256.6" class="st24" width="7.4" height="8"/>
			<rect x="2774.6" y="256.6" class="st24" width="7.4" height="8"/>
			<rect x="2787.9" y="256.6" class="st24" width="7.4" height="8"/>
			<rect x="2801.2" y="256.6" class="st24" width="7.4" height="8"/>
			<rect x="2814.5" y="256.6" class="st24" width="7.4" height="8"/>
			<polygon class="st21" points="2858.4,274.8 2841.3,274.8 2839.2,270.7 2860.5,270.7 			"/>
			<g>
				<ellipse class="st21" cx="2845.2" cy="275.9" rx="2" ry="1.7"/>
				<ellipse class="st21" cx="2854.5" cy="275.9" rx="2" ry="1.7"/>
			</g>
			<polygon class="st21" points="2898.8,274.8 2881.7,274.8 2879.6,270.7 2900.9,270.7 			"/>
			<g>
				<ellipse class="st21" cx="2885.6" cy="275.9" rx="2" ry="1.7"/>
				<path class="st21" d="M2896.9,275.9c0,1-0.9,1.7-2,1.7c-1.1,0-2-0.8-2-1.7c0-1,0.9-1.7,2-1.7
					C2896,274.1,2896.9,274.9,2896.9,275.9z"/>
			</g>
			<polygon class="st21" points="2856.6,250.5 2843.2,250.5 2841.5,254.6 2858.2,254.6 			"/>
			<polygon class="st21" points="2896.9,250.5 2883.5,250.5 2881.9,254.6 2898.5,254.6 			"/>
			<rect x="2833.3" y="252.5" class="st22" width="73.4" height="20"/>
			<rect x="2833.3" y="266.4" class="st23" width="73.4" height="6.1"/>
			<rect x="2839.4" y="256.6" class="st24" width="7.4" height="8"/>
			<rect x="2852.8" y="256.6" class="st24" width="7.4" height="8"/>
			<rect x="2866.1" y="256.6" class="st24" width="7.4" height="8"/>
			<rect x="2879.4" y="256.6" class="st24" width="7.4" height="8"/>
			<rect x="2892.7" y="256.6" class="st24" width="7.4" height="8"/>
			<polygon class="st21" points="2936.6,274.8 2919.5,274.8 2917.4,270.7 2938.7,270.7 			"/>
			<g>
				<ellipse class="st21" cx="2923.4" cy="275.9" rx="2" ry="1.7"/>
				<path class="st21" d="M2934.7,275.9c0,1-0.9,1.7-2,1.7c-1.1,0-2-0.8-2-1.7c0-1,0.9-1.7,2-1.7
					C2933.8,274.1,2934.7,274.9,2934.7,275.9z"/>
			</g>
			<polygon class="st21" points="2976.9,274.8 2959.8,274.8 2957.7,270.7 2979,270.7 			"/>
			<g>
				<ellipse class="st21" cx="2963.8" cy="275.9" rx="2" ry="1.7"/>
				<ellipse class="st21" cx="2973" cy="275.9" rx="2" ry="1.7"/>
			</g>
			<polygon class="st21" points="2934.7,250.5 2921.4,250.5 2919.7,254.6 2936.4,254.6 			"/>
			<polygon class="st21" points="2975.1,250.5 2961.7,250.5 2960.1,254.6 2976.7,254.6 			"/>
			<rect x="2911.5" y="252.5" class="st22" width="73.4" height="20"/>
			<rect x="2911.5" y="266.4" class="st23" width="73.4" height="6.1"/>
			<rect x="2917.6" y="256.6" class="st24" width="7.4" height="8"/>
			<rect x="2930.9" y="256.6" class="st24" width="7.4" height="8"/>
			<rect x="2944.2" y="256.6" class="st24" width="7.4" height="8"/>
			<rect x="2957.5" y="256.6" class="st24" width="7.4" height="8"/>
			<rect x="2970.9" y="256.6" class="st24" width="7.4" height="8"/>
		</g>
	</g>
</g>
<g id="Layer_2">
</g>
</svg>
