<?xml version="1.0" encoding="utf-8"?>
<!-- Generator: Adobe Illustrator 17.1.0, SVG Export Plug-In . SVG Version: 6.00 Build 0)  -->
<!DOCTYPE svg PUBLIC "-//W3C//DTD SVG 1.1//EN" "http://www.w3.org/Graphics/SVG/1.1/DTD/svg11.dtd">
<svg version="1.1" xmlns="http://www.w3.org/2000/svg" xmlns:xlink="http://www.w3.org/1999/xlink" x="0px" y="0px" width="1024px"
	 height="284.5px" viewBox="3132 0 1024 284.5" style="enable-background:new 3132 0 1024 284.5;" xml:space="preserve">
<style type="text/css">
	.st0{fill:#E4E5E6;}
	.st1{fill:#8D9293;}
	.st2{fill:none;}
	.st3{enable-background:new    ;}
	.st4{fill:#383737;}
	.st5{font-family:'GothamLight';}
	.st6{font-size:14;}
	.st7{font-family:'GothamMedium';}
	.st8{fill:#E2FFA3;}
	.st9{fill:#B6E086;}
	.st10{fill:#CDF191;}
	.st11{fill:#6ACE5B;}
	.st12{fill:#B3EC94;}
	.st13{fill:#BDFF61;}
	.st14{fill:#6D4337;}
	.st15{fill:#7DE205;}
	.st16{fill:#6D603E;}
	.st17{fill:#FFC0C0;}
	.st18{fill:#6D3E37;}
	.st19{fill:#844800;}
	.st20{fill:#BFAF97;}
	.st21{fill:#707070;}
	.st22{fill:#FFE2AE;}
	.st23{fill:#FF0808;}
	.st24{fill:#FFFFFF;}
	.st25{fill:#E2EDCE;}
	.st26{fill:#B6CCB1;}
	.st27{fill:#CDDDBC;}
	.st28{fill:#6ABA5B;}
	.st29{fill:#B3D894;}
	.st30{fill:#BDFC61;}
	.st31{fill:#7DCE05;}
	.st32{fill:#649647;}
	.st33{fill:#FFD996;}
	.st34{fill:#F8B879;}
	.st35{fill:#FFC984;}
	.st36{fill:#C1A835;}
	.st37{fill:#FFC66E;}
	.st38{fill:#FFEA3B;}
	.st39{fill:#D4BC00;}
	.st40{fill:#BB8421;}
	.st41{fill:#DDD47F;}
	.st42{fill:#B1B362;}
	.st43{fill:#C8C46D;}
	.st44{fill:#6A9B07;}
	.st45{fill:#B3B940;}
	.st46{fill:#BDDD0D;}
	.st47{fill:#7DAF00;}
	.st48{fill:#647700;}
	.st49{fill:#EBF2FC;}
	.st50{fill:#D5DBE1;}
	.st51{fill:#E3E8EC;}
	.st52{fill:#D3D3D3;}
	.st53{fill:#D4E0FF;}
	.st54{fill:#E5E5E5;}
</style>
<g id="scenery">
	<rect id="signpost_11_" x="3224.1" y="12.1" class="st0" width="16.6" height="255"/>
	<g id="_x30_4-sign_11_">
		<polygon id="_x30_4-sign-R_11_" class="st0" points="3369.1,142.7 3356.4,155.2 3224.9,155.2 3224.9,130.1 3356.4,130.1 		"/>
		<polygon id="_x30_4-shadow_11_" class="st1" points="3241,129.8 3241,155.2 3248.6,155.2 		"/>
		<rect x="3255.6" y="136" class="st2" width="73.8" height="13.5"/>
		<text id="_x30_4-Summary_11_" transform="matrix(1 0 0 1 3255.6001 146.2697)" class="st4 st5 st6">Summary</text>
	</g>
	<g id="_x30_3-sign_22_">
		<polygon id="_x30_3-sign_23_" class="st0" points="3369.1,108.9 3356.4,121.3 3224.9,121.3 3224.9,96.3 3356.4,96.3 		"/>
		<polygon id="_x30_3-shadow_11_" class="st1" points="3241,96 3241,121.4 3248.6,121.4 		"/>
		<rect x="3255.6" y="102" class="st2" width="113.5" height="13.5"/>
		<text id="_x30_3-guardian_11_" transform="matrix(1 0 0 1 3255.6001 112.2697)" class="st7 st6">Guardian Info</text>
	</g>
	<g id="_x30_2-sign_11_">
		<polygon id="_x30_2-signbg_11_" class="st0" points="3369.1,75.1 3356.4,87.6 3224.9,87.6 3224.9,62.5 3356.4,62.5 		"/>
		<polygon id="_x30_2-shadow_11_" class="st1" points="3241,62.3 3241,87.6 3248.6,87.6 		"/>
		<rect x="3255.6" y="69.3" class="st2" width="120.1" height="13.5"/>
		<text id="_x30_2-student_11_" transform="matrix(1 0 0 1 3255.6001 79.5197)" class="st4 st5 st6">Student Info</text>
	</g>
	<g id="_x30_1-sign_11_">
		<polygon id="_x30_1-signbg_11_" class="st0" points="3369.1,41.4 3356.4,53.8 3224.9,53.8 3224.9,28.8 3356.4,28.8 		"/>
		<polygon id="_x30_1-shadow_11_" class="st1" points="3241,28.5 3241,53.9 3248.6,53.9 		"/>
		<rect x="3255.6" y="35.3" class="st2" width="77.3" height="18.5"/>
		<text id="_x30_1-Welcome_11_" transform="matrix(1 0 0 1 3255.6001 45.5197)" class="st4 st5 st6">Welcome</text>
	</g>
	<rect id="signpost_10_" x="3224.1" y="12.1" class="st0" width="16.6" height="255"/>
	<g id="_x30_4-sign_10_">
		<polygon id="_x30_4-sign-R_10_" class="st0" points="3369.1,142.7 3356.4,155.2 3224.9,155.2 3224.9,130.1 3356.4,130.1 		"/>
		<polygon id="_x30_4-shadow_10_" class="st1" points="3241,129.8 3241,155.2 3248.6,155.2 		"/>
		<rect x="3255.6" y="136" class="st2" width="73.8" height="13.5"/>
		<text id="_x30_4-Summary_10_" transform="matrix(1 0 0 1 3255.6001 146.2697)" class="st4 st5 st6">Summary</text>
	</g>
	<g id="_x30_3-sign_20_">
		<polygon id="_x30_3-sign_21_" class="st0" points="3369.1,108.9 3356.4,121.3 3224.9,121.3 3224.9,96.3 3356.4,96.3 		"/>
		<polygon id="_x30_3-shadow_10_" class="st1" points="3241,96 3241,121.4 3248.6,121.4 		"/>
		<rect x="3255.6" y="102" class="st2" width="113.5" height="13.5"/>
		<text id="_x30_3-guardian_10_" transform="matrix(1 0 0 1 3255.6001 112.2697)" class="st7 st6">Guardian Info</text>
	</g>
	<g id="_x30_2-sign_10_">
		<polygon id="_x30_2-signbg_10_" class="st0" points="3369.1,75.1 3356.4,87.6 3224.9,87.6 3224.9,62.5 3356.4,62.5 		"/>
		<polygon id="_x30_2-shadow_10_" class="st1" points="3241,62.3 3241,87.6 3248.6,87.6 		"/>
		<rect x="3255.6" y="69.3" class="st2" width="120.1" height="13.5"/>
		<text id="_x30_2-student_10_" transform="matrix(1 0 0 1 3255.6001 79.5197)" class="st4 st5 st6">Student Info</text>
	</g>
	<g id="_x30_1-sign_10_">
		<polygon id="_x30_1-signbg_10_" class="st0" points="3369.1,41.4 3356.4,53.8 3224.9,53.8 3224.9,28.8 3356.4,28.8 		"/>
		<polygon id="_x30_1-shadow_10_" class="st1" points="3241,28.5 3241,53.9 3248.6,53.9 		"/>
		<rect x="3255.6" y="35.3" class="st2" width="77.3" height="18.5"/>
		<text id="_x30_1-Welcome_10_" transform="matrix(1 0 0 1 3255.6001 45.5197)" class="st4 st5 st6">Welcome</text>
	</g>
	<g>
		<path class="st8" d="M3663.6,132c-67.7,0-122.6,66.1-122.6,147.7h245.2C3786.2,198.1,3731.3,132,3663.6,132z"/>
		<path class="st9" d="M3785.1,211.5c-51.4,0-93.1,30.5-93.1,68.2h186.1C3878.2,242,3836.6,211.5,3785.1,211.5z"/>
		<path class="st10" d="M3367,190.4c-76.5,0-138.4,40-138.4,89.3h276.9C3505.5,230.4,3443.5,190.4,3367,190.4z"/>
		<path class="st9" d="M3545.1,194.7c-35.7,0-64.6,38.1-64.6,85h129.1C3609.7,232.7,3580.8,194.7,3545.1,194.7z"/>
		<path class="st9" d="M4037.7,170.6c-55.4,0-100.4,48-100.4,107.2H4138C4138,218.6,4093.1,170.6,4037.7,170.6z"/>
		<path class="st10" d="M3884.3,193.9c-35.7,0-64.6,38.4-64.6,85.8h129.1C3948.9,232.3,3920,193.9,3884.3,193.9z"/>
	</g>
	<path class="st11" d="M3479.2,280.7c0-1.1,0-2.2,0-3.4c0-33.8-6.4-61.2-14.3-61.2c-2.9,0-5.6,3.7-7.9,10
		c-1.8-29.8-18.9-38.8-21.2-20.1c-2.3-6.5-5-10.3-8-10.3c-6.2,0-11.5,17-13.5,40.7c-1.9-4-4-6.2-6.3-6.2c-7,0-12.9,21.8-14.1,50.4
		H3479.2z"/>
	<path class="st12" d="M3477.3,280.7c0-0.1,0-0.2,0-0.3c0-16-9.4-29-21-29c-0.5,0-1,0-1.5,0.1c-1.3-14.3-10.1-25.4-20.8-25.4
		c-5,0-9.6,2.4-13.3,6.5c-1.7-12.5-7.7-21.8-14.8-21.8c-6.9,0-12.8,8.7-14.7,20.8c-2.1-2.2-4.6-3.4-7.2-3.4
		c-7.6,0-13.9,10.6-15.1,24.4c-1.9-0.8-3.8-1.2-5.8-1.2c-11.6,0-21,13-21,29c0,0.1,0,0.2,0,0.3H3477.3z"/>
	<path class="st13" d="M3569.6,280.7c0-0.1,0-0.2,0-0.3c0-16-6.3-29-14-29c-0.3,0-0.6,0-1,0.1c-0.9-14.3-6.8-25.4-13.9-25.4
		c-3.4,0-6.5,2.4-8.9,6.5c-1.1-12.5-5.2-21.8-9.9-21.8c-4.6,0-8.6,8.7-9.8,20.8c-1.4-2.2-3.1-3.4-4.8-3.4c-5.1,0-9.3,10.6-10.1,24.4
		c-1.2-0.7-2.5-1.1-3.9-1.1c-7.7,0-14,13-14,29c0,0.1,0,0.2,0,0.3H3569.6z"/>
	<path class="st11" d="M3620.8,280.7c0-0.6,0-1.2,0-1.8c0-17.8-6.4-32.3-14.3-32.3c-2.9,0-5.6,2-7.8,5.3
		c-1.8-15.7-6.3-26.8-11.5-26.8c-3.9,0-7.4,6.3-9.7,16.2c-2.3-3.4-5-5.5-8-5.5c-6.2,0-11.5,9-13.5,21.5c-1.9-2.1-4-3.3-6.3-3.3
		c-7,0-12.9,11.5-14.1,26.6H3620.8z"/>
	<path class="st11" d="M3318.7,280.7c0-0.8,0-1.5,0-2.3c0-23.1-4.8-41.9-10.7-41.9c-2.2,0-4.2,2.5-5.8,6.9
		c-1.4-20.4-14.1-26.5-15.8-13.7c-1.7-4.5-3.7-7.1-5.9-7.1c-4.6,0-8.6,11.6-10,27.9c-1.4-2.7-3-4.3-4.7-4.3
		c-5.2,0-9.6,14.9-10.5,34.5H3318.7z"/>
	<path class="st12" d="M3317.3,280.7c0-0.1,0-0.1,0-0.2c0-11-7-19.9-15.6-19.9c-0.4,0-0.7,0-1.1,0.1c-1-9.8-7.5-17.4-15.5-17.4
		c-3.7,0-7.2,1.7-9.9,4.5c-1.3-8.6-5.7-14.9-11-14.9c-5.2,0-9.5,6-10.9,14.2c-1.6-1.5-3.4-2.3-5.4-2.3c-5.7,0-10.4,7.2-11.3,16.7
		c-1.4-0.5-2.8-0.8-4.4-0.8c-8.6,0-15.6,8.9-15.6,19.9c0,0.1,0,0.1,0,0.2H3317.3z"/>
	<path class="st13" d="M3386,280.7c0-0.1,0-0.1,0-0.2c0-11-4.7-19.9-10.4-19.9c-0.2,0-0.5,0-0.7,0.1c-0.6-9.8-5-17.4-10.4-17.4
		c-2.5,0-4.8,1.7-6.6,4.5c-0.8-8.6-3.8-14.9-7.4-14.9c-3.5,0-6.4,6-7.3,14.2c-1.1-1.5-2.3-2.3-3.6-2.3c-3.8,0-6.9,7.2-7.5,16.7
		c-0.9-0.5-1.9-0.8-2.9-0.8c-5.8,0-10.4,8.9-10.4,19.9c0,0.1,0,0.1,0,0.2H3386z"/>
	<path class="st11" d="M3424.1,280.7c0-0.4,0-0.8,0-1.2c0-12.2-4.8-22.1-10.7-22.1c-2.2,0-4.2,1.3-5.8,3.6
		c-1.4-10.8-4.7-18.4-8.5-18.4c-2.9,0-5.5,4.3-7.2,11.1c-1.7-2.4-3.7-3.7-5.9-3.7c-4.6,0-8.6,6.1-10,14.7c-1.4-1.4-3-2.3-4.7-2.3
		c-5.2,0-9.6,7.9-10.5,18.2H3424.1z"/>
	<path class="st11" d="M3515.4,280.7c0-0.6,0-1.2,0-1.8c0-18.1-3.7-32.8-8.3-32.8c-1.7,0-3.3,2-4.6,5.4c-1.1-16-3.7-27.2-6.7-27.2
		c-2.3,0-4.3,6.4-5.7,16.5c-1.3-3.5-2.9-5.5-4.6-5.5c-3.6,0-6.7,9.1-7.9,21.9c-1.1-2.1-2.4-3.3-3.7-3.3c-4.1,0-7.5,11.7-8.2,27.1
		H3515.4z"/>
	<path class="st12" d="M3514.3,280.7c0,0,0-0.1,0-0.1c0-8.6-5.5-15.6-12.2-15.6c-0.3,0-0.6,0-0.8,0c-0.8-7.7-5.9-13.6-12.1-13.6
		c-2.9,0-5.6,1.3-7.7,3.5c-1-6.7-4.5-11.7-8.7-11.7c-4.1,0-7.5,4.7-8.6,11.1c-1.3-1.2-2.7-1.8-4.2-1.8c-4.5,0-8.1,5.7-8.8,13.1
		c-1.1-0.4-2.2-0.6-3.4-0.6c-6.8,0-12.2,7-12.2,15.6c0,0,0,0.1,0,0.1H3514.3z"/>
	<path class="st13" d="M3675.5,280.7c0-0.1,0-0.1,0-0.2c0-11.7-3.7-21.3-8.2-21.3c-0.2,0-0.4,0-0.6,0.1c-0.5-10.5-3.9-18.6-8.1-18.6
		c-2,0-3.8,1.8-5.2,4.8c-0.7-9.2-3-15.9-5.8-15.9c-2.7,0-5,6.4-5.7,15.2c-0.8-1.6-1.8-2.5-2.8-2.5c-3,0-5.4,7.7-5.9,17.8
		c-0.7-0.5-1.5-0.8-2.3-0.8c-4.5,0-8.2,9.5-8.2,21.3c0,0.1,0,0.1,0,0.2H3675.5z"/>
	<path class="st13" d="M3715,280.7c0,0,0-0.1,0-0.1c0-9.4-3.7-17-8.2-17c-0.2,0-0.4,0-0.6,0c-0.5-8.4-3.9-14.9-8.1-14.9
		c-2,0-3.8,1.4-5.2,3.8c-0.7-7.3-3-12.8-5.8-12.8c-2.7,0-5,5.1-5.7,12.2c-0.8-1.3-1.8-2-2.8-2c-3,0-5.4,6.2-5.9,14.3
		c-0.7-0.4-1.5-0.7-2.3-0.7c-4.5,0-8.2,7.6-8.2,17c0,0,0,0.1,0,0.1H3715z"/>
	<path class="st12" d="M3778.3,280.7c0-0.1,0-0.1,0-0.1c0-9.5-6.6-17.2-14.7-17.2c-0.3,0-0.7,0-1,0c-0.9-8.5-7.1-15.1-14.6-15.1
		c-3.5,0-6.8,1.5-9.3,3.9c-1.2-7.4-5.4-12.9-10.4-12.9c-4.9,0-9,5.2-10.3,12.3c-1.5-1.3-3.2-2-5.1-2c-5.4,0-9.8,6.3-10.6,14.5
		c-1.3-0.4-2.7-0.7-4.1-0.7c-8.1,0-14.7,7.7-14.7,17.2c0,0.1,0,0.1,0,0.1H3778.3z"/>
	<path class="st12" d="M3641.6,280.7c0,0,0-0.1,0-0.1c0-8.6-9-15.7-20-15.7c-0.5,0-0.9,0-1.4,0c-1.2-7.7-9.6-13.7-19.9-13.7
		c-4.8,0-9.2,1.3-12.7,3.5c-1.6-6.8-26.4-7-28.2-0.6c-2.1-1.2-4.4-1.8-6.9-1.8c-7.3,0-13.3,5.7-14.4,13.2c-1.8-0.4-3.6-0.6-5.6-0.6
		c-11.1,0-20,7-20,15.7c0,0,0,0.1,0,0.1H3641.6z"/>
	<path class="st13" d="M3562.9,280.7c0,0,0-0.1,0-0.1c0-7.2-3.7-13.1-8.2-13.1c-0.2,0-0.4,0-0.6,0c-0.5-6.5-3.9-11.5-8.1-11.5
		c-2,0-3.8,1.1-5.2,3c-0.7-5.7-3-9.8-5.8-9.8c-2.7,0-5,4-5.7,9.4c-0.8-1-1.8-1.5-2.8-1.5c-3,0-5.4,4.8-5.9,11
		c-0.7-0.3-1.5-0.5-2.3-0.5c-4.5,0-8.2,5.9-8.2,13.1c0,0,0,0.1,0,0.1H3562.9z"/>
	<path class="st11" d="M3895.9,280.7c0-0.8,0-1.6,0-2.4c0-24-4.9-43.4-11-43.4c-2.2,0-4.3,2.6-6.1,7.1
		c-1.4-21.1-14.6-27.5-16.3-14.2c-1.8-4.6-3.9-7.3-6.1-7.3c-4.8,0-8.9,12.1-10.4,28.9c-1.5-2.8-3.1-4.4-4.9-4.4
		c-5.4,0-9.9,15.4-10.9,35.8H3895.9z"/>
	<path class="st12" d="M3894.5,280.7c0-0.1,0-0.1,0-0.2c0-11.4-8.2-20.6-18.2-20.6c-0.4,0-0.8,0-1.3,0.1c-1.1-10.2-8.8-18-18.1-18
		c-4.4,0-8.4,1.7-11.5,4.6c-1.5-8.9-6.7-15.4-12.9-15.4c-6,0-11.1,6.2-12.8,14.7c-1.9-1.5-4-2.4-6.3-2.4c-6.6,0-12.1,7.5-13.1,17.3
		c-1.6-0.5-3.3-0.8-5.1-0.8c-10.1,0-18.2,9.2-18.2,20.6c0,0.1,0,0.1,0,0.2H3894.5z"/>
	<path class="st11" d="M4044.2,280.7c0-0.8,0-1.6,0-2.4c0-24,4.9-43.4,11-43.4c2.2,0,4.3,2.6,6.1,7.1c1.4-21.1,14.6-27.5,16.3-14.2
		c1.8-4.6,3.9-7.3,6.1-7.3c4.8,0,8.9,12.1,10.4,28.9c1.5-2.8,3.1-4.4,4.9-4.4c5.4,0,9.9,15.4,10.9,35.8H4044.2z"/>
	<path class="st12" d="M4045.7,280.7c0-0.1,0-0.1,0-0.2c0-11.4,7.2-20.6,16.2-20.6c0.4,0,0.7,0,1.1,0.1c1-10.2,7.8-18,16.1-18
		c3.9,0,7.4,1.7,10.2,4.6c1.3-8.9,5.9-15.4,11.4-15.4c5.4,0,9.9,6.2,11.3,14.7c1.7-1.5,3.5-2.4,5.6-2.4c5.9,0,10.8,7.5,11.7,17.3
		c1.4-0.5,2.9-0.8,4.5-0.8c8.9,0,16.2,9.2,16.2,20.6c0,0.1,0,0.1,0,0.2H4045.7z"/>
	<path class="st13" d="M3965.7,280.7c0-0.1,0-0.1,0-0.2c0-11.4-4.8-20.6-10.8-20.6c-0.2,0-0.5,0-0.7,0.1c-0.7-10.2-5.2-18-10.7-18
		c-2.6,0-5,1.7-6.8,4.6c-0.9-8.9-4-15.4-7.7-15.4c-3.6,0-6.6,6.2-7.6,14.7c-1.1-1.5-2.4-2.4-3.7-2.4c-3.9,0-7.2,7.5-7.8,17.3
		c-1-0.5-2-0.8-3-0.8c-6,0-10.8,9.2-10.8,20.6c0,0.1,0,0.1,0,0.2H3965.7z"/>
	<path class="st11" d="M4005.2,280.7c0-0.4,0-0.8,0-1.3c0-12.7-4.9-22.9-11-22.9c-2.2,0-4.3,1.4-6.1,3.8c-1.4-11.2-4.9-19-8.9-19
		c-3,0-5.7,4.5-7.5,11.5c-1.8-2.4-3.9-3.9-6.1-3.9c-4.8,0-8.9,6.4-10.4,15.3c-1.5-1.5-3.1-2.3-4.9-2.3c-5.4,0-9.9,8.2-10.9,18.9
		H4005.2z"/>
	<path class="st11" d="M4050.7,280.7c0-0.4,0-0.8,0-1.3c0-12.7-4.9-22.9-11-22.9c-2.2,0-4.3,1.4-6.1,3.8c-1.4-11.2-4.9-19-8.9-19
		c-3,0-5.7,4.5-7.5,11.5c-1.8-2.4-3.9-3.9-6.1-3.9c-4.8,0-8.9,6.4-10.4,15.3c-1.5-1.5-3.1-2.3-4.8-2.3c-5.4,0-9.9,8.2-10.9,18.9
		H4050.7z"/>
	<rect x="4050.8" y="269.4" class="st14" width="2.6" height="11.3"/>
	<path class="st15" d="M4060.8,252.7c2.9,10.8-3.9,16.6-8.7,16.6c-4.8,0-11.8-7.5-8.7-16.6c3-8.8,3.9-16.6,8.7-16.6
		C4056.9,236.1,4058.4,243.8,4060.8,252.7z"/>
	<rect x="3326.3" y="251.4" class="st16" width="5.2" height="29.3"/>
	<path class="st17" d="M3351.5,237.8c0.2-0.9,0.4-1.7,0.4-2.7c0-5.2-4-9.4-9-9.4c-1.8,0-3.6,0.6-5,1.6c0-0.2,0-0.4,0-0.6
		c0-5.2-4-9.4-9-9.4c-5,0-9,4.2-9,9.4c0,0.2,0,0.4,0,0.6c-1.4-1-3.1-1.6-5-1.6c-5,0-9,4.2-9,9.4c0,0.9,0.1,1.8,0.4,2.7
		c-2.8,1.6-4.6,4.7-4.6,8.2c0,5.2,4,9.4,9,9.4c0.3,0,0.6,0,1-0.1c1.5,3.1,4.5,5.2,8.1,5.2c3.5,0,6.6-2.1,8.1-5.2
		c0.4,0.1,0.9,0.1,1.3,0.1c0.3,0,0.6,0,1-0.1c1.5,3.1,4.5,5.2,8.1,5.2c3.5,0,6.6-2.1,8.1-5.2c0.3,0,0.6,0.1,1,0.1c5,0,9-4.2,9-9.4
		C3356.1,242.4,3354.3,239.4,3351.5,237.8z"/>
	<rect x="3744.4" y="248.9" class="st16" width="5.7" height="31.8"/>
	<path class="st17" d="M3771.9,234.1c0.3-0.9,0.4-1.9,0.4-2.9c0-5.6-4.4-10.2-9.8-10.2c-2,0-3.9,0.6-5.4,1.7c0-0.2,0-0.4,0-0.6
		c0-5.6-4.4-10.2-9.8-10.2c-5.4,0-9.8,4.6-9.8,10.2c0,0.2,0,0.4,0,0.6c-1.6-1.1-3.4-1.7-5.4-1.7c-5.4,0-9.8,4.6-9.8,10.2
		c0,1,0.1,2,0.4,2.9c-3,1.7-5,5.1-5,8.9c0,5.6,4.4,10.2,9.8,10.2c0.4,0,0.7,0,1-0.1c1.6,3.3,4.9,5.6,8.8,5.6c3.9,0,7.2-2.3,8.8-5.7
		c0.5,0.1,0.9,0.1,1.4,0.1c0.4,0,0.7,0,1.1-0.1c1.6,3.3,4.9,5.6,8.7,5.6c3.8,0,7.1-2.3,8.8-5.6c0.3,0,0.7,0.1,1.1,0.1
		c5.4,0,9.8-4.6,9.8-10.2C3776.9,239.1,3774.9,235.8,3771.9,234.1z"/>
	<rect x="3409.9" y="247.5" class="st16" width="5.9" height="33.2"/>
	<path class="st17" d="M3438.6,231.9c0.3-1,0.4-2,0.4-3c0-5.9-4.6-10.6-10.3-10.6c-2.1,0-4.1,0.7-5.7,1.8c0-0.2,0-0.4,0-0.6
		c0-5.9-4.6-10.6-10.2-10.6c-5.7,0-10.3,4.8-10.3,10.6c0,0.2,0,0.4,0,0.6c-1.6-1.1-3.6-1.8-5.7-1.8c-5.7,0-10.3,4.8-10.3,10.6
		c0,1.1,0.2,2.1,0.4,3c-3.1,1.8-5.2,5.3-5.2,9.3c0,5.9,4.6,10.6,10.3,10.6c0.4,0,0.7,0,1.1-0.1c1.7,3.5,5.2,5.9,9.2,5.9
		c4,0,7.5-2.4,9.2-5.9c0.5,0.1,1,0.1,1.5,0.1c0.4,0,0.7,0,1.1-0.1c1.7,3.5,5.1,5.9,9.2,5.9c4,0,7.5-2.4,9.2-5.9
		c0.4,0,0.7,0.1,1.1,0.1c5.7,0,10.3-4.8,10.3-10.6C3443.9,237.2,3441.7,233.7,3438.6,231.9z"/>
	<rect x="3612.2" y="266.3" class="st18" width="3.3" height="14.4"/>
	<path class="st15" d="M3622.3,253.6c2.8,10.4-3.8,16.1-8.4,16.1c-4.6,0-11.4-7.3-8.4-16.1c2.9-8.5,3.8-16.1,8.4-16.1
		C3618.5,237.5,3620,244.9,3622.3,253.6z"/>
	<rect x="3650.6" y="266.3" class="st18" width="3.3" height="14.4"/>
	<path class="st15" d="M3660.7,253.6c2.8,10.4-3.8,16.1-8.4,16.1c-4.6,0-11.4-7.3-8.4-16.1c2.9-8.5,3.8-16.1,8.4-16.1
		C3656.9,237.5,3658.3,244.9,3660.7,253.6z"/>
	<rect x="4016.5" y="269.4" class="st14" width="2.6" height="11.3"/>
	<path class="st15" d="M4026.5,252.7c2.9,10.8-3.9,16.6-8.7,16.6c-4.8,0-11.8-7.5-8.7-16.6c3-8.8,3.9-16.6,8.7-16.6
		C4022.6,236.1,4024.1,243.8,4026.5,252.7z"/>
	<g>
		<rect x="3801.5" y="255.2" class="st16" width="4.6" height="25.5"/>
		<path class="st17" d="M3823.5,243.3c0.2-0.7,0.3-1.5,0.3-2.3c0-4.5-3.5-8.2-7.9-8.2c-1.6,0-3.1,0.5-4.4,1.4c0-0.2,0-0.3,0-0.5
			c0-4.5-3.5-8.2-7.9-8.2c-4.3,0-7.9,3.7-7.9,8.2c0,0.2,0,0.3,0,0.5c-1.2-0.9-2.7-1.4-4.4-1.4c-4.3,0-7.9,3.7-7.9,8.2
			c0,0.8,0.1,1.6,0.3,2.3c-2.4,1.4-4,4.1-4,7.1c0,4.5,3.5,8.2,7.9,8.2c0.3,0,0.6,0,0.8,0c1.3,2.7,3.9,4.5,7,4.5c3.1,0,5.8-1.9,7-4.5
			c0.4,0.1,0.8,0.1,1.1,0.1c0.3,0,0.6,0,0.8,0c1.3,2.7,3.9,4.5,7,4.5c3.1,0,5.7-1.8,7-4.5c0.3,0,0.6,0,0.8,0c4.3,0,7.9-3.7,7.9-8.2
			C3827.5,247.4,3825.9,244.7,3823.5,243.3z"/>
	</g>
	<g>
		<rect x="3964.6" y="255.2" class="st16" width="4.6" height="25.5"/>
		<path class="st17" d="M3986.6,243.3c0.2-0.7,0.3-1.5,0.3-2.3c0-4.5-3.5-8.2-7.9-8.2c-1.6,0-3.1,0.5-4.4,1.4c0-0.2,0-0.3,0-0.5
			c0-4.5-3.5-8.2-7.9-8.2c-4.3,0-7.9,3.7-7.9,8.2c0,0.2,0,0.3,0,0.5c-1.2-0.9-2.7-1.4-4.4-1.4c-4.3,0-7.9,3.7-7.9,8.2
			c0,0.8,0.1,1.6,0.3,2.3c-2.4,1.4-4,4.1-4,7.1c0,4.5,3.5,8.2,7.9,8.2c0.3,0,0.6,0,0.8,0c1.3,2.7,3.9,4.5,7,4.5c3.1,0,5.8-1.9,7-4.5
			c0.4,0.1,0.8,0.1,1.1,0.1c0.3,0,0.6,0,0.8,0c1.3,2.7,3.9,4.5,7,4.5c3.1,0,5.7-1.8,7-4.5c0.3,0,0.6,0,0.8,0c4.3,0,7.9-3.7,7.9-8.2
			C3990.6,247.4,3989,244.7,3986.6,243.3z"/>
	</g>
	<g>
		<rect x="3215.3" y="280.3" class="st19" width="935.4" height="2.8"/>
		<rect x="3215.3" y="282.1" class="st20" width="935.4" height="5.1"/>
	</g>
	<g>
		<polygon class="st21" points="3887.7,277.5 3870.7,277.5 3868.6,273.4 3889.8,273.4 		"/>
		<g>
			<ellipse class="st21" cx="3874.6" cy="278.5" rx="2" ry="1.7"/>
			<ellipse class="st21" cx="3883.8" cy="278.5" rx="2" ry="1.7"/>
		</g>
		<polygon class="st21" points="3927.8,277.5 3910.8,277.5 3908.7,273.4 3929.9,273.4 		"/>
		<g>
			<ellipse class="st21" cx="3914.7" cy="278.5" rx="2" ry="1.7"/>
			<ellipse class="st21" cx="3923.9" cy="278.5" rx="2" ry="1.7"/>
		</g>
		<polygon class="st21" points="3885.8,253.2 3872.5,253.2 3870.9,257.3 3887.5,257.3 		"/>
		<polygon class="st21" points="3926,253.2 3912.7,253.2 3911,257.3 3927.6,257.3 		"/>
		<rect x="3862.7" y="255.3" class="st22" width="73.1" height="19.9"/>
		<rect x="3862.7" y="269.1" class="st23" width="73.1" height="6.1"/>
		<rect x="3868.8" y="259.4" class="st24" width="7.4" height="7.9"/>
		<rect x="3882" y="259.4" class="st24" width="7.4" height="7.9"/>
		<rect x="3895.3" y="259.4" class="st24" width="7.4" height="7.9"/>
		<rect x="3908.5" y="259.4" class="st24" width="7.4" height="7.9"/>
		<rect x="3921.8" y="259.4" class="st24" width="7.4" height="7.9"/>
		<polygon class="st21" points="3965.5,277.5 3948.5,277.5 3946.4,273.4 3967.6,273.4 		"/>
		<g>
			<ellipse class="st21" cx="3952.4" cy="278.5" rx="2" ry="1.7"/>
			<ellipse class="st21" cx="3961.6" cy="278.5" rx="2" ry="1.7"/>
		</g>
		<polygon class="st21" points="4005.7,277.5 3988.6,277.5 3986.6,273.4 4007.8,273.4 		"/>
		<g>
			<ellipse class="st21" cx="3992.6" cy="278.5" rx="2" ry="1.7"/>
			<path class="st21" d="M4003.8,278.5c0,1-0.9,1.7-2,1.7c-1.1,0-2-0.8-2-1.7c0-1,0.9-1.7,2-1.7
				C4002.9,276.8,4003.8,277.6,4003.8,278.5z"/>
		</g>
		<polygon class="st21" points="3963.7,253.2 3950.3,253.2 3948.7,257.3 3965.3,257.3 		"/>
		<polygon class="st21" points="4003.8,253.2 3990.5,253.2 3988.9,257.3 4005.5,257.3 		"/>
		<rect x="3940.5" y="255.3" class="st22" width="73.1" height="19.9"/>
		<rect x="3940.5" y="269.1" class="st23" width="73.1" height="6.1"/>
		<rect x="3946.6" y="259.4" class="st24" width="7.4" height="7.9"/>
		<rect x="3959.9" y="259.4" class="st24" width="7.4" height="7.9"/>
		<rect x="3973.1" y="259.4" class="st24" width="7.4" height="7.9"/>
		<rect x="3986.4" y="259.4" class="st24" width="7.4" height="7.9"/>
		<rect x="3999.6" y="259.4" class="st24" width="7.4" height="7.9"/>
		<polygon class="st21" points="4043.3,277.5 4026.3,277.5 4024.2,273.4 4045.4,273.4 		"/>
		<g>
			<ellipse class="st21" cx="4030.2" cy="278.5" rx="2" ry="1.7"/>
			<ellipse class="st21" cx="4039.4" cy="278.5" rx="2" ry="1.7"/>
		</g>
		<polygon class="st21" points="4083.5,277.5 4066.5,277.5 4064.4,273.4 4085.6,273.4 		"/>
		<g>
			<ellipse class="st21" cx="4070.4" cy="278.5" rx="2" ry="1.7"/>
			<ellipse class="st21" cx="4079.6" cy="278.5" rx="2" ry="1.7"/>
		</g>
		<polygon class="st21" points="4041.5,253.2 4028.2,253.2 4026.5,257.3 4043.1,257.3 		"/>
		<polygon class="st21" points="4081.6,253.2 4068.3,253.2 4066.7,257.3 4083.3,257.3 		"/>
		<rect x="4018.4" y="255.3" class="st22" width="73.1" height="19.9"/>
		<rect x="4018.4" y="269.1" class="st23" width="73.1" height="6.1"/>
		<rect x="4024.4" y="259.4" class="st24" width="7.4" height="7.9"/>
		<rect x="4037.7" y="259.4" class="st24" width="7.4" height="7.9"/>
		<rect x="4050.9" y="259.4" class="st24" width="7.4" height="7.9"/>
		<rect x="4064.2" y="259.4" class="st24" width="7.4" height="7.9"/>
		<rect x="4077.4" y="259.4" class="st24" width="7.4" height="7.9"/>
	</g>
	<rect x="3237.1" y="266.3" class="st18" width="3.3" height="14.4"/>
	<path class="st15" d="M3247.1,253.6c2.8,10.4-3.8,16.1-8.4,16.1c-4.6,0-11.4-7.3-8.4-16.1c2.9-8.5,3.8-16.1,8.4-16.1
		C3243.4,237.5,3244.8,244.9,3247.1,253.6z"/>
	<g>
		<path class="st50" d="M3059,209.6c-51.6,0-93.5,30.7-93.5,68.5h187C3152.5,240.2,3110.6,209.6,3059,209.6z"/>
		<path class="st50" d="M3312.6,168.5c-55.7,0-100.8,48.2-100.8,107.6h201.6C3413.4,216.7,3368.3,168.5,3312.6,168.5z"/>
		<path class="st51" d="M3158.6,191.8c-35.8,0-64.9,38.6-64.9,86.2h129.7C3223.4,230.5,3194.4,191.8,3158.6,191.8z"/>
		<path class="st52" d="M3148.1,278.1c0-0.1,0-0.2,0-0.3c0-18.5-15.8-33.6-35.3-33.6c-0.8,0-1.6,0-2.4,0.1
			c-2.2-16.6-17-29.4-35-29.4c-8.5,0-16.3,2.8-22.3,7.6c-2.9-14.5-13-25.2-25-25.2c-11.7,0-21.6,10.1-24.7,24
			c-3.6-2.5-7.7-3.9-12.1-3.9c-12.9,0-23.5,12.2-25.5,28.2c-3.1-0.9-6.4-1.3-9.8-1.3c-19.5,0-35.3,15-35.3,33.6c0,0.1,0,0.2,0,0.3
			H3148.1z"/>
		<path class="st52" d="M3170.2,278.1c0-0.8,0-1.6,0-2.4c0-24.1-5-43.6-11.1-43.6c-2.2,0-4.3,2.6-6.1,7.2
			c-1.4-21.2-14.6-27.6-16.4-14.3c-1.8-4.6-3.9-7.4-6.2-7.4c-4.8,0-8.9,12.1-10.4,29c-1.5-2.8-3.1-4.4-4.9-4.4
			c-5.5,0-10,15.5-10.9,35.9H3170.2z"/>
		<path class="st53" d="M3198,278.1c0-0.1,0-0.2,0-0.3c0-17.5-10.4-31.6-23.4-31.6c-0.5,0-1.1,0-1.6,0.1
			c-1.4-15.6-11.3-27.7-23.2-27.7c-5.6,0-10.7,2.7-14.8,7.1c-1.9-13.7-8.6-23.7-16.5-23.7c-7.7,0-14.3,9.5-16.4,22.6
			c-2.4-2.4-5.1-3.7-8-3.7c-8.5,0-15.5,11.5-16.8,26.6c-2.1-0.8-4.2-1.3-6.5-1.3c-12.9,0-23.3,14.2-23.3,31.6c0,0.1,0,0.2,0,0.3
			H3198z"/>
		<path class="st52" d="M3319.2,278.1c0-0.8,0-1.6,0-2.4c0-24.1,5-43.6,11.1-43.6c2.2,0,4.3,2.6,6.1,7.2
			c1.4-21.2,14.6-27.6,16.4-14.3c1.8-4.6,3.9-7.4,6.2-7.4c4.8,0,8.9,12.1,10.4,29c1.5-2.8,3.1-4.4,4.9-4.4c5.5,0,10,15.5,10.9,35.9
			H3319.2z"/>
		<path class="st53" d="M3320.7,278.1c0-0.1,0-0.1,0-0.2c0-11.4,7.3-20.7,16.3-20.7c0.4,0,0.8,0,1.1,0.1c1-10.2,7.8-18.1,16.1-18.1
			c3.9,0,7.5,1.7,10.3,4.7c1.3-8.9,6-15.5,11.5-15.5c5.4,0,9.9,6.2,11.4,14.8c1.7-1.6,3.6-2.4,5.6-2.4c5.9,0,10.8,7.5,11.7,17.4
			c1.4-0.5,3-0.8,4.5-0.8c9,0,16.3,9.3,16.3,20.7c0,0.1,0,0.1,0,0.2H3320.7z"/>
		<path class="st52" d="M3240.3,278.1c0-0.1,0-0.1,0-0.2c0-11.4-4.9-20.7-10.9-20.7c-0.2,0-0.5,0-0.7,0.1
			c-0.7-10.2-5.2-18.1-10.8-18.1c-2.6,0-5,1.7-6.9,4.7c-0.9-8.9-4-15.5-7.7-15.5c-3.6,0-6.6,6.2-7.6,14.8c-1.1-1.6-2.4-2.4-3.7-2.4
			c-4,0-7.2,7.5-7.8,17.4c-1-0.5-2-0.8-3-0.8c-6,0-10.9,9.3-10.9,20.7c0,0.1,0,0.1,0,0.2H3240.3z"/>
		<path class="st53" d="M3285.9,278.1c0-0.7,0-1.3,0-2c0-20.2-7.9-36.5-17.6-36.5c-3.6,0-6.9,2.2-9.6,6
			c-2.3-17.8-7.7-30.3-14.1-30.3c-4.8,0-9.1,7.2-11.9,18.3c-2.8-3.9-6.2-6.2-9.8-6.2c-7.6,0-14.1,10.1-16.6,24.3
			c-2.3-2.4-5-3.7-7.7-3.7c-8.7,0-15.8,13-17.3,30.1H3285.9z"/>
		<path class="st52" d="M3358.4,278.1c0-0.7,0-1.3,0-2c0-20.2-7.9-36.5-17.6-36.5c-3.6,0-6.9,2.2-9.6,6
			c-2.3-17.8-7.7-30.3-14.1-30.3c-4.8,0-9.1,7.2-11.9,18.3c-2.8-3.9-6.2-6.2-9.8-6.2c-7.6,0-14.1,10.1-16.6,24.3
			c-2.3-2.4-5-3.7-7.7-3.7c-8.7,0-15.8,13-17.3,30.1H3358.4z"/>
		<rect x="3325.8" y="266.7" class="st14" width="2.6" height="11.4"/>
		<path class="st24" d="M3335.9,250c2.9,10.9-3.9,16.7-8.7,16.7c-4.8,0-11.9-7.6-8.7-16.7c3-8.9,3.9-16.7,8.7-16.7
			C3332,233.3,3333.5,241,3335.9,250z"/>
		<rect x="3291.3" y="266.7" class="st14" width="2.6" height="11.4"/>
		<path class="st24" d="M3301.4,250c2.9,10.9-3.9,16.7-8.7,16.7c-4.8,0-11.9-7.6-8.7-16.7c3-8.9,3.9-16.7,8.7-16.7
			C3297.5,233.3,3299,241,3301.4,250z"/>
		<g>
			<rect x="2486.5" y="277.6" class="st19" width="939.6" height="2.9"/>
			<rect x="2486.5" y="279.4" class="st20" width="939.6" height="5.1"/>
		</g>
	</g>
</g>
<g id="Layer_2">
</g>
</svg>
